<svg width="186" height="120" viewBox="0 0 186 120" fill="none" xmlns="http://www.w3.org/2000/svg">
  <path d="M81 69V51H85.0092L93.0031 61.9012V51H97V69H92.8075L85.0092 58.284V69H81Z" fill="#929292" />
  <path
    d="M108.5 68.9999C107.192 69.0047 105.893 68.8029 104.652 68.4022C103.464 68.066 102.409 67.3862 101.63 66.4537C100.797 65.5855 100.114 64.5925 99.6079 63.513C99.2106 62.377 99.0065 61.186 99.0035 59.9865C98.97 58.7843 99.1752 57.5872 99.6079 56.4601C100.016 55.3406 100.712 54.3407 101.63 53.5552C102.52 52.7452 103.54 52.0828 104.652 51.5948C107.148 50.8017 109.84 50.8017 112.335 51.5948C113.524 51.9429 114.58 52.6252 115.369 53.5552C116.197 54.4205 116.876 55.4094 117.379 56.484C117.778 57.6117 117.986 58.7944 117.996 59.9865C118.031 61.1888 117.826 62.3863 117.392 63.513C116.985 64.6401 116.294 65.6509 115.382 66.4537C114.482 67.2539 113.458 67.9115 112.348 68.4022C111.107 68.8041 109.808 69.006 108.5 68.9999V68.9999ZM108.5 64.8877C109.36 64.8829 110.205 64.6779 110.966 64.29C111.655 63.8524 112.213 63.2462 112.582 62.5327C112.984 61.7404 113.192 60.8693 113.192 59.9865C113.192 59.1037 112.984 58.2326 112.582 57.4403C112.213 56.7268 111.655 56.1206 110.966 55.683C110.227 55.2439 109.365 55.0391 108.5 55.0973C107.64 55.0926 106.793 55.2938 106.033 55.683C105.349 56.1222 104.796 56.7283 104.43 57.4403C104.028 58.2326 103.819 59.1037 103.819 59.9865C103.819 60.8693 104.028 61.7404 104.43 62.5327C104.803 63.2579 105.369 63.873 106.07 64.3139C106.804 64.7333 107.649 64.933 108.5 64.8877V64.8877Z"
    fill="#929292" />
  <path
    d="M119 68.7791V51.0008H126.208C127.784 50.9791 129.335 51.4008 130.693 52.2202C132.002 52.9608 133.082 54.0635 133.809 55.4027C134.615 56.7919 135.027 58.3838 134.999 59.9997C135.027 61.6156 134.615 63.2075 133.809 64.5967C133.09 65.9302 132.024 67.0321 130.728 67.7793C129.373 68.6051 127.82 69.0273 126.244 68.9986H119V68.7791ZM126.208 55.0003H123.484V64.7552H126.208C126.8 64.8075 127.394 64.7077 127.938 64.465C128.483 64.2222 128.959 63.8442 129.325 63.3652C130.152 62.3643 130.577 61.0784 130.514 59.768C130.542 58.463 130.121 57.1897 129.325 56.1709C128.484 55.3587 127.363 54.9204 126.208 54.9515V55.0003Z"
    fill="#929292" />
  <path d="M137 69V51H149.548V54.8519H141.394V57.8765H148.596V61.716H141.602V65.1605H150V69H137Z" fill="#929292" />
  <path fill-rule="evenodd" clip-rule="evenodd"
    d="M45.3532 80H66.6468C69.1146 79.9655 71.4718 78.9704 73.2181 77.2258C74.9644 75.4813 75.9623 73.1246 76 70.6561V49.3317C75.9984 48.1047 75.7552 46.8899 75.2843 45.7569C74.8134 44.6239 74.124 43.5947 73.2555 42.7282C72.387 41.8616 71.3563 41.1747 70.2224 40.7066C69.0885 40.2385 67.8735 39.9984 66.6468 40H45.3289C44.1022 40.0016 42.8878 40.2449 41.7552 40.7159C40.6225 41.187 39.5936 41.8766 38.7273 42.7454C37.8611 43.6141 37.1744 44.6451 36.7064 45.7794C36.2384 46.9136 35.9984 48.129 36 49.356V70.6683C36.0016 71.8953 36.2448 73.1101 36.7157 74.2431C37.1866 75.3761 37.876 76.4053 38.7445 77.2718C39.613 78.1384 40.6437 78.8253 41.7776 79.2934C42.9115 79.7615 44.1265 80.0016 45.3532 80ZM47.6483 68.4029C48.8881 68.8031 50.1869 69.0047 51.4937 68.9998C52.8046 69.0073 54.108 68.8056 55.3513 68.4029C56.4614 67.9129 57.4847 67.2562 58.3832 66.457C59.2948 65.6553 59.9854 64.6459 60.3922 63.5202C60.8264 62.3951 61.0315 61.1991 60.9961 59.9984C60.9825 58.8073 60.7702 57.6261 60.3675 56.5006C59.8644 55.4274 59.1861 54.4398 58.3586 53.5757C57.5736 52.6381 56.5181 51.9482 55.3267 51.594C52.8325 50.802 50.1425 50.802 47.6483 51.594C46.5358 52.0886 45.5155 52.7583 44.6287 53.5757C43.7109 54.3601 43.0151 55.3587 42.6075 56.4767C42.175 57.6023 41.97 58.7979 42.0035 59.9984C42.0065 61.1963 42.2105 62.3857 42.6075 63.5202C43.1637 64.5704 43.8419 65.5557 44.6287 66.457C45.4073 67.3882 46.4607 68.0671 47.6483 68.4029ZM56.134 59.9984C56.134 60.8801 55.9253 61.75 55.5239 62.5413L53.9956 64.32C53.2364 64.7092 52.3895 64.9102 51.5306 64.905C50.6664 64.9607 49.8055 64.7564 49.0657 64.32C48.3694 63.8781 47.8078 63.264 47.4388 62.5413C47.0374 61.75 46.8287 60.8801 46.8287 59.9984C46.8287 59.1168 47.0374 58.2469 47.4388 57.4556C47.7874 56.7517 48.3181 56.1471 48.9794 55.7007C49.7388 55.312 50.5855 55.1111 51.4444 55.1157C52.3088 55.0576 53.1705 55.2621 53.9093 55.7007C54.5977 56.1377 55.1547 56.7431 55.5239 57.4556C55.9253 58.2469 56.134 59.1168 56.134 59.9984ZM69 69H64.5171V56.2913L61.775 57.4857L61 53.568L66.079 51H69V69Z"
    fill="#929292" />

</svg>