<svg width="186" height="120" viewBox="0 0 186 120" fill="none" xmlns="http://www.w3.org/2000/svg">
<path fill-rule="evenodd" clip-rule="evenodd" d="M67.3409 51.4249C62.8811 55.8847 62.8811 63.1154 67.3409 67.5752L84.4246 84.6589C88.8844 89.1187 96.1152 89.1187 100.575 84.6589L117.659 67.5752C122.118 63.1154 122.118 55.8847 117.659 51.4249L100.575 34.3412C96.1152 29.8814 88.8844 29.8814 84.4246 34.3412L67.3409 51.4249ZM86.4202 44C81.2176 44 77.0002 48.2175 77.0002 53.42V65.58C77.0002 70.7826 81.2176 75 86.4202 75H98.5801C103.783 75 108 70.7826 108 65.58V53.42C108 48.2175 103.783 44 98.5801 44H86.4202Z" fill="#929292"/>
<circle cx="105.5" cy="59.5" r="11.5" fill="#555555"/>
</svg>
