<svg width="186" height="120" viewBox="0 0 186 120" fill="none" xmlns="http://www.w3.org/2000/svg">
<path d="M99.2861 49.202H109V50.4059C109 60.0591 101.219 67.9015 91.5873 67.9508C82.5474 67.9942 71.0344 68.0236 59.654 67.9743C49.8917 67.9381 42 59.9867 42 50.2018V48.5922C42 39.427 49.4099 32 58.553 32H66.0923C68.8741 32 71.1316 34.2593 71.1316 37.0492C71.1316 39.8392 68.8741 42.0984 66.0923 42.0984H58.1419C54.8584 42.0984 52.1949 44.7699 52.1949 48.0579V50.7619C52.1949 54.8253 55.4839 58.1233 59.5369 58.1233H91.9981C96.0372 58.1233 99.3068 54.8357 99.2905 50.7854L99.2861 49.202Z" fill="#929292"/>
<path d="M84.7155 50.7981H75V49.5947C75 39.9387 82.7831 32.0992 92.4145 32.0527C101.454 32.0069 112.965 31.9771 124.345 32.0228C134.11 32.0622 142 40.0139 142 49.7992V51.4084C142 60.5706 134.586 68 125.447 68H117.907C115.126 68 112.87 65.7412 112.87 62.948C112.87 60.1613 115.126 57.902 117.907 57.902H125.86C129.142 57.902 131.803 55.2307 131.803 51.943V49.2382C131.803 45.1749 128.518 41.8805 124.463 41.8805H92.0017C87.9651 41.8805 84.6941 45.1653 84.7091 49.2152L84.7155 50.7981Z" fill="#929292"/>
<path d="M50.8877 85.343C50.9947 85.343 51.0876 85.3852 51.1657 85.4692L51.9414 86.3252C51.5122 86.8663 50.984 87.2804 50.3573 87.5681C49.7305 87.8559 48.978 88 48.0999 88C47.3144 88 46.6084 87.8637 45.9816 87.5906C45.3548 87.3179 44.8194 86.9383 44.3754 86.4523C43.9314 85.9658 43.5914 85.3856 43.3549 84.7105C43.118 84.0357 43 83.299 43 82.5C43 81.6913 43.1318 80.9507 43.3953 80.2787C43.6588 79.6063 44.0293 79.0273 44.5076 78.5408C44.9854 78.0547 45.5574 77.6763 46.2234 77.4055C46.8894 77.1352 47.6247 77 48.4293 77C49.2145 77 49.9011 77.1282 50.489 77.3834C51.077 77.6391 51.5804 77.978 52 78.3994L51.3416 79.3298C51.3024 79.3894 51.2525 79.4413 51.1916 79.4862C51.1303 79.5308 51.0465 79.5532 50.9391 79.5532C50.8268 79.5532 50.7122 79.5087 50.5953 79.4192C50.4784 79.3298 50.3295 79.2333 50.149 79.1291C49.9685 79.0249 49.7404 78.9281 49.4647 78.8386C49.189 78.7492 48.8391 78.7046 48.4149 78.7046C47.9175 78.7046 47.4598 78.7929 47.0429 78.9688C46.6259 79.145 46.2672 79.3968 45.9671 79.7241C45.6671 80.0513 45.4329 80.4499 45.2646 80.9186C45.0963 81.3876 45.0121 81.9148 45.0121 82.5C45.0121 83.1054 45.0963 83.6438 45.2646 84.1151C45.4329 84.5865 45.661 84.9835 45.9485 85.3058C46.2363 85.6284 46.5752 85.8751 46.9656 86.0463C47.3559 86.2175 47.7751 86.3031 48.2241 86.3031C48.4922 86.3031 48.7351 86.288 48.9521 86.2586C49.1692 86.2288 49.3691 86.1815 49.5523 86.1172C49.7351 86.0525 49.9083 85.9697 50.0717 85.8678C50.235 85.7663 50.3972 85.6408 50.5583 85.4921C50.6071 85.4475 50.6581 85.4115 50.7122 85.3844C50.7655 85.3565 50.8241 85.343 50.8877 85.343Z" fill="#929292"/>
<path d="M54 88V77H55.9341V81.2268C56.2471 80.9456 56.5918 80.7183 56.9676 80.5457C57.3433 80.3731 57.7842 80.2868 58.2908 80.2868C58.7293 80.2868 59.1181 80.3573 59.4575 80.4979C59.7966 80.6385 60.0802 80.8358 60.3072 81.09C60.5342 81.3443 60.7066 81.6479 60.824 82.0003C60.9413 82.3532 61 82.7419 61 83.1661V88H59.0659V83.1661C59.0659 82.7023 58.9522 82.3432 58.7252 82.089C58.4982 81.8347 58.1575 81.7076 57.7031 81.7076C57.369 81.7076 57.0556 81.7792 56.7634 81.9221C56.4708 82.0655 56.1941 82.2604 55.9333 82.5069V87.9996H54V88Z" fill="#929292"/>
<path d="M68 87.8791H67.221C67.057 87.8791 66.9285 87.8525 66.835 87.7999C66.7411 87.7473 66.671 87.6406 66.6246 87.4793L66.4701 86.9292C66.2875 87.1054 66.109 87.2596 65.9333 87.393C65.7576 87.526 65.5765 87.6382 65.3895 87.7285C65.2025 87.8191 65.0035 87.887 64.7931 87.9321C64.5828 87.9776 64.3487 88 64.0915 88C63.7873 88 63.5068 87.9557 63.2494 87.8674C62.9919 87.7791 62.771 87.6469 62.5862 87.4703C62.4014 87.2937 62.2575 87.0744 62.1545 86.8122C62.0515 86.5501 62 86.2449 62 85.8968C62 85.6041 62.0712 85.3157 62.214 85.0308C62.3568 84.7459 62.5942 84.4889 62.9262 84.259C63.2581 84.0294 63.7004 83.8391 64.2526 83.6881C64.8044 83.5366 65.4899 83.4609 66.3087 83.4609V83.0053C66.3087 82.4834 66.2068 82.0973 66.0034 81.8466C65.8 81.5958 65.5038 81.4703 65.1156 81.4703C64.8351 81.4703 64.601 81.5056 64.414 81.5758C64.227 81.6465 64.0642 81.7257 63.9261 81.8132C63.7881 81.9015 63.6606 81.9804 63.5437 82.051C63.4269 82.1212 63.2983 82.1566 63.1577 82.1566C63.0408 82.1566 62.94 82.124 62.856 82.0585C62.7717 81.9933 62.7038 81.9129 62.6526 81.8171L62.3367 81.2215C63.1646 80.4073 64.1635 80 65.3333 80C65.7543 80 66.1298 80.0742 66.4596 80.2225C66.7893 80.3708 67.0687 80.5768 67.2981 80.8409C67.5274 81.105 67.7016 81.4201 67.821 81.7873C67.9405 82.1542 68 82.5564 68 82.9935V87.8791ZM64.6317 86.7177C64.8095 86.7177 64.9732 86.7004 65.1229 86.6659C65.2726 86.631 65.414 86.5792 65.5473 86.5101C65.6806 86.4407 65.8091 86.3555 65.9333 86.2543C66.0571 86.153 66.1824 86.0326 66.3087 85.8941V84.5992C65.8036 84.5992 65.3811 84.6333 65.0422 84.7016C64.7029 84.7699 64.4305 84.8574 64.2245 84.9633C64.0185 85.0696 63.8724 85.194 63.7859 85.3357C63.6993 85.4773 63.6562 85.6316 63.6562 85.7987C63.6562 86.1279 63.7464 86.3634 63.9265 86.505C64.1065 86.647 64.3417 86.7177 64.6317 86.7177Z" fill="#929292"/>
<path d="M72 78.172C72 78.3302 71.9727 78.4785 71.9177 78.617C71.8626 78.7556 71.7902 78.8764 71.6993 78.9803C71.6084 79.0841 71.502 79.1671 71.3798 79.2289C71.2572 79.2906 71.1265 79.3215 70.9875 79.3215C70.8524 79.3215 70.7246 79.2906 70.6044 79.2289C70.4842 79.1671 70.3798 79.0841 70.2912 78.9803C70.2026 78.8764 70.1318 78.7556 70.0791 78.617C70.0264 78.4785 70 78.3302 70 78.172C70 78.0087 70.0264 77.8554 70.0791 77.7118C70.1318 77.5686 70.2026 77.4447 70.2912 77.3412C70.3798 77.2374 70.4842 77.1544 70.6044 77.0926C70.7246 77.0309 70.8524 77 70.9875 77C71.1268 77 71.2576 77.0309 71.3798 77.0926C71.502 77.1544 71.6087 77.2374 71.6993 77.3412C71.7899 77.4451 71.8626 77.5686 71.9177 77.7118C71.9727 77.8554 72 78.0087 72 78.172ZM71.7658 80.3896V88H70.2026V80.3896H71.7658Z" fill="#929292"/>
<path d="M74 88V80.1227H75.1824C75.433 80.1227 75.5976 80.2377 75.6758 80.4683L75.8091 81.0904C75.9708 80.9266 76.142 80.7783 76.3221 80.6449C76.5022 80.5118 76.6924 80.3968 76.8937 80.2993C77.0946 80.2022 77.3097 80.1279 77.5395 80.0767C77.7693 80.0256 78.0199 80 78.2913 80C78.7297 80 79.1184 80.0731 79.4578 80.219C79.7968 80.3648 80.0804 80.5694 80.3073 80.8331C80.5343 81.0968 80.7066 81.4116 80.824 81.7772C80.9413 82.1432 81 82.5464 81 82.9863V88H79.0662V82.9863C79.0662 82.5052 78.9526 82.1329 78.7256 81.8691C78.4987 81.6054 78.158 81.4736 77.7037 81.4736C77.3696 81.4736 77.0563 81.5479 76.7641 81.6961C76.4716 81.8448 76.1949 82.047 75.9342 82.3027V87.9996H74V88Z" fill="#929292"/>
<path d="M86.0119 80C86.6161 80 87.1637 80.0934 87.655 80.2801C88.1464 80.4668 88.5652 80.7319 88.9122 81.0749C89.2592 81.418 89.5271 81.8367 89.7162 82.3311C89.9052 82.8258 90 83.378 90 83.9886C90 84.6042 89.9057 85.1592 89.7162 85.6536C89.5271 86.1483 89.2588 86.5694 88.9122 86.9176C88.5656 87.2658 88.1464 87.5332 87.655 87.7199C87.1637 87.9066 86.6161 88 86.0119 88C85.4077 88 84.8585 87.9066 84.3646 87.7199C83.8708 87.5332 83.4491 87.2658 83.0997 86.9176C82.7502 86.5694 82.4795 86.1483 82.2879 85.6536C82.096 85.1592 82 84.6042 82 83.9886C82 83.378 82.096 82.8258 82.2879 82.3311C82.4795 81.8367 82.7502 81.418 83.0997 81.0749C83.4491 80.7319 83.8708 80.4668 84.3646 80.2801C84.8585 80.0934 85.4077 80 86.0119 80ZM86.0119 86.5619C86.6846 86.5619 87.1821 86.3449 87.5053 85.9108C87.8285 85.4771 87.9902 84.841 87.9902 84.0035C87.9902 83.1661 87.8285 82.5276 87.5053 82.0888C87.1821 81.6496 86.6842 81.4302 86.0119 81.4302C85.329 81.4302 84.8244 81.6512 84.4988 82.0924C84.1731 82.5339 84.0103 83.1709 84.0103 84.0035C84.0103 84.8358 84.1731 85.4708 84.4988 85.9072C84.8244 86.3437 85.329 86.5619 86.0119 86.5619Z" fill="#929292"/>
<path d="M96.8805 87.8898C96.6431 87.8898 96.4872 87.78 96.4131 87.5599L96.2646 86.8345C96.1063 87.0103 95.9408 87.1694 95.7679 87.3109C95.5946 87.4527 95.4082 87.5748 95.2079 87.6774C95.0077 87.7799 94.7927 87.8593 94.5627 87.9157C94.3327 87.9718 94.0846 88 93.8175 88C93.4023 88 93.0214 87.9146 92.6756 87.7433C92.3295 87.5725 92.0315 87.3246 91.7822 86.9997C91.5326 86.6747 91.3396 86.2731 91.2038 85.7941C91.0675 85.3151 91 84.7682 91 84.1527C91 83.5955 91.0764 83.078 91.2296 82.599C91.3828 82.1203 91.6028 81.705 91.8895 81.353C92.1763 81.0014 92.5201 80.7264 92.9203 80.5285C93.3209 80.3305 93.7704 80.2318 94.2698 80.2318C94.6951 80.2318 95.0586 80.2989 95.36 80.4331C95.6614 80.5674 95.9308 80.747 96.1685 80.9716V77H98V87.8898H96.8805ZM94.4408 86.5634C94.8213 86.5634 95.1454 86.4852 95.4121 86.3288C95.6791 86.1725 95.9311 85.9501 96.1685 85.6622V82.2912C95.9609 82.0422 95.7347 81.8663 95.49 81.7634C95.245 81.6608 94.9818 81.6097 94.7005 81.6097C94.4234 81.6097 94.1726 81.6608 93.9476 81.7634C93.7226 81.866 93.5323 82.0212 93.3768 82.2287C93.2213 82.4365 93.1013 82.7 93.0171 83.02C92.933 83.34 92.891 83.7175 92.891 84.1523C92.891 84.592 92.9268 84.9646 92.9986 85.2697C93.0704 85.5752 93.1727 85.8243 93.3062 86.0172C93.4397 86.2102 93.6026 86.3494 93.7955 86.4348C93.9885 86.5207 94.2038 86.5634 94.4408 86.5634Z" fill="#929292"/>
<path d="M103.683 80C104.165 80 104.61 80.078 105.016 80.2344C105.422 80.3908 105.772 80.6193 106.066 80.9194C106.36 81.2196 106.589 81.5879 106.753 82.0244C106.918 82.4609 107 82.9592 107 83.5194C107 83.6608 106.994 83.7778 106.981 83.8712C106.969 83.9645 106.946 84.0378 106.914 84.0906C106.882 84.1434 106.838 84.1816 106.783 84.2041C106.729 84.2269 106.659 84.2379 106.574 84.2379H101.838C101.893 85.0353 102.104 85.621 102.473 85.9941C102.841 86.3675 103.329 86.5543 103.937 86.5543C104.236 86.5543 104.494 86.5192 104.71 86.4483C104.927 86.3778 105.116 86.2998 105.278 86.2135C105.44 86.128 105.582 86.0496 105.704 85.9791C105.825 85.9082 105.944 85.8732 106.058 85.8732C106.133 85.8732 106.198 85.8885 106.253 85.9188C106.308 85.9492 106.355 85.9921 106.395 86.0473L106.933 86.7284C106.729 86.9706 106.5 87.1739 106.245 87.3378C105.991 87.5017 105.726 87.6329 105.45 87.7313C105.174 87.8298 104.892 87.8992 104.606 87.9393C104.319 87.9799 104.041 88 103.773 88C103.24 88 102.744 87.9102 102.286 87.7313C101.828 87.5525 101.43 87.2874 101.091 86.9364C100.752 86.5858 100.486 86.1517 100.292 85.6344C100.097 85.1172 100 84.518 100 83.8369C100 83.3067 100.085 82.8087 100.254 82.3419C100.423 81.8751 100.666 81.469 100.982 81.1231C101.299 80.7776 101.684 80.5038 102.14 80.3018C102.596 80.1008 103.11 80 103.683 80ZM103.72 81.3394C103.182 81.3394 102.761 81.4934 102.457 81.8011C102.154 82.1087 101.959 82.5456 101.875 83.1105H105.341C105.341 82.8682 105.309 82.6401 105.244 82.4254C105.179 82.2111 105.08 82.0232 104.945 81.8617C104.811 81.7002 104.642 81.573 104.438 81.4796C104.233 81.3863 103.994 81.3394 103.72 81.3394Z" fill="#929292"/>
<path d="M120 77V78.6814H116.569V88H114.447V78.6814H111V77H120Z" fill="#929292"/>
<path d="M121.683 80C122.165 80 122.61 80.078 123.016 80.2344C123.422 80.3908 123.772 80.6193 124.066 80.9194C124.36 81.2196 124.589 81.5879 124.753 82.0244C124.918 82.4609 125 82.9592 125 83.5194C125 83.6608 124.994 83.7778 124.981 83.8712C124.969 83.9645 124.946 84.0378 124.914 84.0906C124.882 84.1434 124.838 84.1816 124.783 84.2041C124.729 84.2269 124.659 84.2379 124.574 84.2379H119.838C119.893 85.0353 120.104 85.621 120.473 85.9941C120.841 86.3675 121.329 86.5543 121.937 86.5543C122.236 86.5543 122.494 86.5192 122.71 86.4483C122.927 86.3778 123.116 86.2998 123.278 86.2135C123.44 86.128 123.582 86.0496 123.704 85.9791C123.825 85.9082 123.944 85.8732 124.058 85.8732C124.133 85.8732 124.198 85.8885 124.253 85.9188C124.308 85.9492 124.355 85.9921 124.395 86.0473L124.933 86.7284C124.729 86.9706 124.5 87.1739 124.245 87.3378C123.991 87.5017 123.726 87.6329 123.45 87.7313C123.174 87.8298 122.892 87.8992 122.606 87.9393C122.319 87.9799 122.041 88 121.773 88C121.24 88 120.744 87.9102 120.286 87.7313C119.828 87.5525 119.43 87.2874 119.091 86.9364C118.752 86.5858 118.486 86.1517 118.292 85.6344C118.097 85.1172 118 84.518 118 83.8369C118 83.3067 118.085 82.8087 118.254 82.3419C118.423 81.8751 118.666 81.469 118.982 81.1231C119.299 80.7776 119.684 80.5038 120.14 80.3018C120.596 80.1008 121.11 80 121.683 80ZM121.72 81.3394C121.182 81.3394 120.761 81.4934 120.457 81.8011C120.154 82.1087 119.959 82.5456 119.875 83.1105H123.341C123.341 82.8682 123.309 82.6401 123.244 82.4254C123.179 82.2111 123.08 82.0232 122.945 81.8617C122.811 81.7002 122.642 81.573 122.438 81.4796C122.233 81.3863 121.994 81.3394 121.72 81.3394Z" fill="#929292"/>
<path d="M132.394 81.7636C132.334 81.8345 132.276 81.89 132.22 81.9302C132.163 81.9708 132.081 81.9908 131.973 81.9908C131.87 81.9908 131.771 81.9621 131.673 81.9038C131.576 81.8459 131.46 81.7801 131.325 81.7068C131.19 81.6336 131.03 81.5682 130.844 81.5099C130.658 81.452 130.427 81.4228 130.152 81.4228C129.802 81.4228 129.494 81.4823 129.23 81.6005C128.965 81.719 128.745 81.8896 128.57 82.1114C128.395 82.3336 128.264 82.6022 128.178 82.9173C128.091 83.2329 128.048 83.5897 128.048 83.9884C128.048 84.4024 128.095 84.7707 128.189 85.0937C128.284 85.4167 128.42 85.6877 128.598 85.9075C128.776 86.1269 128.992 86.2936 129.245 86.407C129.499 86.5205 129.785 86.5772 130.103 86.5772C130.421 86.5772 130.679 86.5405 130.876 86.4677C131.072 86.3944 131.238 86.3137 131.374 86.2254C131.508 86.1372 131.626 86.0564 131.726 85.9832C131.825 85.9099 131.937 85.8733 132.061 85.8733C132.223 85.8733 132.345 85.9316 132.426 86.0474L133 86.7284C132.779 86.9707 132.539 87.174 132.28 87.3378C132.021 87.5017 131.753 87.6329 131.475 87.7314C131.197 87.8298 130.91 87.8992 130.613 87.9393C130.317 87.9799 130.023 88 129.731 88C129.218 88 128.736 87.9102 128.282 87.7314C127.829 87.5525 127.434 87.291 127.097 86.9479C126.759 86.6048 126.492 86.1848 126.296 85.6877C126.099 85.1906 126 84.6246 126 83.9884C126 83.4184 126.088 82.8898 126.263 82.4029C126.438 81.916 126.696 81.4945 127.036 81.1388C127.376 80.7831 127.797 80.5042 128.298 80.3025C128.8 80.1008 129.377 80 130.03 80C130.65 80 131.194 80.0934 131.66 80.2801C132.127 80.4668 132.546 80.7343 132.919 81.0821L132.394 81.7636Z" fill="#929292"/>
<path d="M134 88V77H135.934V81.2268C136.247 80.9456 136.592 80.7183 136.968 80.5457C137.343 80.3731 137.785 80.2868 138.291 80.2868C138.729 80.2868 139.118 80.3573 139.457 80.4979C139.797 80.6385 140.08 80.8358 140.307 81.09C140.534 81.3443 140.706 81.6479 140.824 82.0003C140.941 82.3532 141 82.7419 141 83.1661V88H139.066V83.1661C139.066 82.7023 138.952 82.3432 138.725 82.089C138.499 81.8347 138.158 81.7076 137.704 81.7076C137.37 81.7076 137.056 81.7792 136.764 81.9221C136.472 82.0655 136.195 82.2604 135.934 82.5069V87.9996H134V88Z" fill="#929292"/>
</svg>
