<svg width="140" height="91" viewBox="0 0 140 91" fill="none" xmlns="http://www.w3.org/2000/svg">
<g clip-path="url(#clip0_1331_6045)">
<path d="M39.4479 51.78C35.413 51.78 33.0723 48.8773 33.0723 44.5234C33.0723 40.1501 35.5654 37.3684 39.5619 37.3684C42.6261 37.3684 44.8145 39.133 45.3664 42.24H43.0412C42.6225 40.3605 41.2715 39.3628 39.4826 39.3628C37.2943 39.3628 35.5618 41.1672 35.5618 44.5234C35.5618 47.9001 37.2559 49.7795 39.4635 49.7795C41.3279 49.7795 42.6609 48.8011 43.0796 46.9023H45.4048C44.8336 50.0154 42.6261 51.78 39.4479 51.78Z" fill="#929292"/>
<path d="M52.146 40.9798C54.6199 40.9798 55.6253 42.5907 55.6253 45.0459V51.5308H53.3613V45.6046C53.3613 44.2029 53.155 42.8411 51.4225 42.8411C49.69 42.8411 49.0422 44.1835 49.0422 46.0436V51.5308H46.7793V37.6224H49.0422V42.6488C49.6336 41.5736 50.7218 40.9798 52.146 40.9798Z" fill="#929292"/>
<path d="M66.7216 41.2096V51.5308H64.4576V50.169C63.8481 51.1849 62.7779 51.78 61.4126 51.78C58.8427 51.78 56.959 49.6889 56.959 46.3702C56.959 43.0515 58.8427 40.9798 61.4126 40.9798C62.7827 40.9798 63.8481 41.5736 64.4576 42.5907V41.2096H66.7216ZM59.3189 46.3702C59.3189 48.5568 60.2511 49.9187 61.9069 49.9187C63.391 49.9187 64.5464 48.7492 64.5464 46.3702C64.5464 43.9913 63.391 42.8411 61.9069 42.8411C60.2511 42.8411 59.3189 44.1835 59.3189 46.3702Z" fill="#929292"/>
<path d="M78.101 41.0003C80.5749 41.0003 81.5803 42.6113 81.5803 45.0664V51.5489H79.3188V45.6228C79.3188 44.2222 79.11 42.8604 77.3775 42.8604C75.645 42.8604 74.9984 44.2029 74.9984 46.063V51.5489H72.7344V41.2301H74.9984V42.6693C75.5886 41.5954 76.6733 41.0003 78.101 41.0003Z" fill="#929292"/>
<path d="M87.1368 42.7455C86.147 42.7455 85.234 43.187 85.234 43.8776C85.234 44.5681 85.7284 44.9322 86.6042 45.1051L88.0511 45.393C90.1243 45.7957 91.7044 46.4476 91.7044 48.4625C91.7044 50.6117 89.6876 51.8005 87.3648 51.8005C84.8537 51.8005 83.1788 50.3613 82.9316 48.4044H85.1392C85.348 49.4603 86.1099 50.0747 87.4416 50.0747C88.621 50.0747 89.4969 49.5751 89.4969 48.731C89.4969 47.8868 88.7362 47.5034 87.7272 47.3112L86.1855 47.0052C84.4542 46.6592 83.102 45.8731 83.102 43.9925C83.102 42.1699 85.0433 41.0003 87.2701 41.0003C89.2689 41.0003 91.095 41.9788 91.5136 44.0505H89.3829C89.1357 43.1108 88.2791 42.7455 87.1368 42.7455Z" fill="#929292"/>
<path d="M96.1298 38.5065V41.2301H98.1848V42.8798H96.1298V48.5012C96.1298 49.5558 96.3764 49.8049 97.3473 49.8049H98.1656V51.5489H96.4854C94.2974 51.5489 93.8595 50.9539 93.8595 48.8435V42.8798H92.3418V41.2301H93.8643V38.5065H96.1298Z" fill="#929292"/>
<path d="M109.088 41.2301V51.5489H106.823V50.1895C106.215 51.2055 105.144 51.8005 103.778 51.8005C101.209 51.8005 99.3242 49.7094 99.3242 46.3908C99.3242 43.0721 101.209 41.0003 103.778 41.0003C105.148 41.0003 106.215 41.5954 106.823 42.6113V41.2301H109.088ZM101.686 46.3908C101.686 48.5774 102.618 49.9392 104.273 49.9392C105.757 49.9392 106.913 48.7696 106.913 46.3908C106.913 44.0118 105.753 42.8616 104.273 42.8616C102.618 42.8616 101.686 44.2041 101.686 46.3908Z" fill="#929292"/>
<path d="M117.973 44.7604C117.787 43.6659 116.827 42.8991 115.594 42.8991C114.187 42.8991 112.911 43.9549 112.911 46.3908C112.911 48.8459 114.204 49.8981 115.538 49.8981C116.64 49.8981 117.763 49.3986 118.048 48.0175H120.257C119.8 50.4362 117.688 51.7969 115.499 51.7969C112.529 51.7969 110.57 49.476 110.57 46.4065C110.57 43.3369 112.549 40.9967 115.594 40.9967C117.821 40.9967 119.8 42.448 120.181 44.7569L117.973 44.7604Z" fill="#929292"/>
<path d="M123.86 45.3736L127.645 41.2301H130.367L126.447 45.4703L130.804 51.5489H128.166L124.95 47.074L123.87 48.2448V51.5489H121.594V37.6405H123.86V45.3736Z" fill="#929292"/>
<path d="M70.9 51.5308H68.6348V41.2096H70.9V51.5308Z" fill="#929292"/>
<path d="M69.7691 40.4791C70.6198 40.4791 71.3096 39.7838 71.3096 38.9262C71.3096 38.0685 70.6198 37.3733 69.7691 37.3733C68.9183 37.3733 68.2285 38.0685 68.2285 38.9262C68.2285 39.7838 68.9183 40.4791 69.7691 40.4791Z" fill="#929292"/>
<path d="M22.0335 48.7551H12.6488C12.3219 48.7558 11.998 48.6914 11.6957 48.5657C11.3935 48.4399 11.1189 48.2553 10.8876 48.0222L8.96792 46.0872C8.50562 45.6173 8.24678 44.982 8.24805 44.3202V39.295C8.2474 38.9654 8.31128 38.6389 8.43605 38.3343C8.56081 38.0296 8.744 37.7528 8.97512 37.5196L10.8948 35.5845C11.3613 35.1184 11.992 34.8575 12.6488 34.8589H22.0335V37.6405H13.4875C12.83 37.6412 12.1995 37.9048 11.7346 38.3735C11.2697 38.8421 11.0082 39.4776 11.0075 40.1404V43.4736C11.0075 44.1369 11.2688 44.7729 11.7338 45.2421C12.1988 45.7113 12.8295 45.9752 13.4875 45.9759H22.0335V48.7551Z" fill="#929292"/>
<path d="M13.7656 40.4222H23.1515C23.8072 40.4216 24.4365 40.6825 24.9019 41.1479L26.8216 43.083C27.2872 43.5523 27.5487 44.1888 27.5487 44.8524V49.8776C27.5487 50.5412 27.2872 51.1776 26.8216 51.6469L24.9019 53.582C24.4365 54.0513 23.805 54.3149 23.1467 54.3149H13.7656V51.5333H22.3117C22.97 51.5333 23.6014 51.2696 24.0669 50.8004C24.5324 50.3311 24.794 49.6945 24.794 49.0309V45.6989C24.794 45.0353 24.5324 44.3989 24.0669 43.9296C23.6014 43.4603 22.97 43.1967 22.3117 43.1967H13.7656V40.4222Z" fill="#929292"/>
</g>
<defs>
<clipPath id="clip0_1331_6045">
<rect width="121.935" height="27.8495" fill="white" transform="translate(9.0332 30.8601)"/>
</clipPath>
</defs>
</svg>
