<svg width="161" height="104" viewBox="0 0 161 104" fill="none" xmlns="http://www.w3.org/2000/svg">
<path d="M60.8906 54.9371V43.896H62.9727V54.9371H60.8906ZM65.1126 54.9371V47.1137H67.0685V47.9654H67.3524C67.4891 47.7025 67.7152 47.4765 68.0306 47.2872C68.3461 47.0874 68.7614 46.9875 69.2767 46.9875C69.834 46.9875 70.2809 47.0979 70.6174 47.3187C70.9539 47.529 71.2115 47.8077 71.3903 48.1547H71.6742C71.8529 47.8182 72.1053 47.5396 72.4313 47.3187C72.7573 47.0979 73.2199 46.9875 73.8193 46.9875C74.303 46.9875 74.7394 47.0927 75.1285 47.303C75.528 47.5028 75.8435 47.813 76.0748 48.2336C76.3167 48.6437 76.4376 49.1642 76.4376 49.7951V54.9371H74.4502V49.937C74.4502 49.5059 74.3398 49.1852 74.119 48.9749C73.8982 48.7541 73.588 48.6437 73.1884 48.6437C72.7362 48.6437 72.384 48.7909 72.1316 49.0853C71.8898 49.3692 71.7688 49.7793 71.7688 50.3156V54.9371H69.7814V49.937C69.7814 49.5059 69.671 49.1852 69.4502 48.9749C69.2294 48.7541 68.9192 48.6437 68.5196 48.6437C68.0674 48.6437 67.7152 48.7909 67.4628 49.0853C67.2209 49.3692 67.1 49.7793 67.1 50.3156V54.9371H65.1126ZM78.5751 58.0917V47.1137H80.5309V48.0601H80.8148C80.9936 47.7551 81.2722 47.487 81.6508 47.2556C82.0294 47.0138 82.5709 46.8929 83.2754 46.8929C83.9063 46.8929 84.4899 47.0506 85.0262 47.3661C85.5625 47.671 85.9936 48.1232 86.3198 48.7225C86.6458 49.3219 86.8088 50.0475 86.8088 50.8992V51.1516C86.8088 52.0033 86.6458 52.7289 86.3198 53.3282C85.9936 53.9276 85.5625 54.385 85.0262 54.7005C84.4899 55.0054 83.9063 55.1579 83.2754 55.1579C82.8022 55.1579 82.4026 55.1001 82.0767 54.9844C81.7612 54.8792 81.5036 54.7425 81.3038 54.5743C81.1145 54.3955 80.962 54.2168 80.8464 54.038H80.5625V58.0917H78.5751ZM82.676 53.4229C83.2964 53.4229 83.8064 53.2283 84.206 52.8393C84.6161 52.4397 84.8212 51.8613 84.8212 51.1042V50.9465C84.8212 50.1894 84.6161 49.6163 84.206 49.2273C83.7959 48.8277 83.2859 48.6279 82.676 48.6279C82.0662 48.6279 81.5562 48.8277 81.1461 49.2273C80.736 49.6163 80.5309 50.1894 80.5309 50.9465V51.1042C80.5309 51.8613 80.736 52.4397 81.1461 52.8393C81.5562 53.2283 82.0662 53.4229 82.676 53.4229ZM92.1979 55.1579C91.4197 55.1579 90.731 54.9949 90.1316 54.6689C89.5428 54.3324 89.0801 53.8645 88.7436 53.2651C88.4176 52.6553 88.2546 51.9402 88.2546 51.12V50.9307C88.2546 50.1105 88.4176 49.4008 88.7436 48.8014C89.0696 48.1915 89.527 47.7236 90.1158 47.3976C90.7047 47.0611 91.3882 46.8929 92.1663 46.8929C92.9339 46.8929 93.6017 47.0664 94.1695 47.4134C94.7373 47.7499 95.179 48.223 95.4944 48.8329C95.8099 49.4323 95.9676 50.1316 95.9676 50.9307V51.609H90.2736C90.2946 52.1453 90.4944 52.5816 90.8729 52.9181C91.2515 53.2546 91.7142 53.4229 92.261 53.4229C92.8183 53.4229 93.2284 53.3019 93.4913 53.0601C93.7541 52.8182 93.9539 52.5501 94.0906 52.2557L95.7152 53.1074C95.568 53.3808 95.3525 53.6805 95.0686 54.0065C94.7952 54.3219 94.4271 54.5953 93.9645 54.8267C93.5018 55.0475 92.9129 55.1579 92.1979 55.1579ZM90.2893 50.1263H93.9487C93.9066 49.6742 93.7226 49.3114 93.3966 49.038C93.0812 48.7646 92.6658 48.6279 92.1506 48.6279C91.6143 48.6279 91.1884 48.7646 90.8729 49.038C90.5575 49.3114 90.3629 49.6742 90.2893 50.1263ZM97.7363 54.9371V47.1137H99.6921V47.997H99.976C100.092 47.6815 100.281 47.4502 100.544 47.303C100.817 47.1557 101.133 47.0821 101.49 47.0821H102.437V48.8487H101.459C100.954 48.8487 100.539 48.9854 100.213 49.2588C99.8867 49.5217 99.7237 49.9318 99.7237 50.4891V54.9371H97.7363ZM106.235 55.1579C105.677 55.1579 105.178 55.0633 104.736 54.874C104.295 54.6742 103.942 54.3903 103.68 54.0222C103.427 53.6437 103.301 53.1863 103.301 52.65C103.301 52.1137 103.427 51.6668 103.68 51.3093C103.942 50.9413 104.3 50.6679 104.752 50.4891C105.215 50.2998 105.741 50.2052 106.329 50.2052H108.475V49.7635C108.475 49.3955 108.359 49.0958 108.128 48.8645C107.896 48.6226 107.528 48.5017 107.023 48.5017C106.529 48.5017 106.161 48.6174 105.919 48.8487C105.677 49.0695 105.52 49.3587 105.446 49.7162L103.616 49.1011C103.743 48.7015 103.942 48.3387 104.216 48.0127C104.5 47.6763 104.873 47.4081 105.336 47.2083C105.809 46.998 106.382 46.8929 107.055 46.8929C108.085 46.8929 108.9 47.1505 109.5 47.6657C110.099 48.181 110.399 48.9276 110.399 49.9055V52.8235C110.399 53.139 110.546 53.2967 110.84 53.2967H111.471V54.9371H110.146C109.757 54.9371 109.437 54.8424 109.184 54.6532C108.932 54.4639 108.806 54.2115 108.806 53.8961V53.8803H108.506C108.464 54.0065 108.369 54.1747 108.222 54.385C108.075 54.5848 107.844 54.7636 107.528 54.9213C107.213 55.079 106.782 55.1579 106.235 55.1579ZM106.582 53.5491C107.139 53.5491 107.591 53.3966 107.938 53.0916C108.296 52.7762 108.475 52.3608 108.475 51.8456V51.6878H106.471C106.103 51.6878 105.814 51.7667 105.604 51.9244C105.394 52.0822 105.288 52.303 105.288 52.5869C105.288 52.8708 105.399 53.1022 105.62 53.2809C105.84 53.4597 106.161 53.5491 106.582 53.5491ZM115.352 54.9371C114.836 54.9371 114.416 54.7793 114.09 54.4639C113.774 54.1379 113.617 53.7068 113.617 53.1705V48.7541H111.661V47.1137H113.617V44.6846H115.604V47.1137H117.749V48.7541H115.604V52.8235C115.604 53.139 115.751 53.2967 116.046 53.2967H117.56V54.9371H115.352ZM122.993 55.1579C122.215 55.1579 121.516 55.0002 120.895 54.6847C120.275 54.3692 119.786 53.9118 119.428 53.3125C119.071 52.7131 118.892 51.9928 118.892 51.1516V50.8992C118.892 50.058 119.071 49.3377 119.428 48.7383C119.786 48.1389 120.275 47.6815 120.895 47.3661C121.516 47.0506 122.215 46.8929 122.993 46.8929C123.771 46.8929 124.47 47.0506 125.091 47.3661C125.711 47.6815 126.2 48.1389 126.558 48.7383C126.915 49.3377 127.094 50.058 127.094 50.8992V51.1516C127.094 51.9928 126.915 52.7131 126.558 53.3125C126.2 53.9118 125.711 54.3692 125.091 54.6847C124.47 55.0002 123.771 55.1579 122.993 55.1579ZM122.993 53.3913C123.603 53.3913 124.108 53.1968 124.507 52.8077C124.907 52.4081 125.107 51.8403 125.107 51.1042V50.9465C125.107 50.2104 124.907 49.6479 124.507 49.2588C124.118 48.8592 123.613 48.6594 122.993 48.6594C122.383 48.6594 121.878 48.8592 121.479 49.2588C121.079 49.6479 120.879 50.2104 120.879 50.9465V51.1042C120.879 51.8403 121.079 52.4081 121.479 52.8077C121.878 53.1968 122.383 53.3913 122.993 53.3913ZM128.929 54.9371V47.1137H130.885V47.997H131.169C131.284 47.6815 131.474 47.4502 131.737 47.303C132.01 47.1557 132.325 47.0821 132.683 47.0821H133.629V48.8487H132.651C132.147 48.8487 131.731 48.9854 131.405 49.2588C131.079 49.5217 130.916 49.9318 130.916 50.4891V54.9371H128.929ZM135.166 55.1579C134.745 55.1579 134.387 55.0212 134.093 54.7478C133.809 54.4639 133.667 54.1011 133.667 53.6595C133.667 53.2178 133.809 52.8603 134.093 52.5869C134.387 52.303 134.745 52.161 135.166 52.161C135.597 52.161 135.954 52.303 136.238 52.5869C136.522 52.8603 136.664 53.2178 136.664 53.6595C136.664 54.1011 136.522 54.4639 136.238 54.7478C135.954 55.0212 135.597 55.1579 135.166 55.1579ZM142.2 55.1579C141.443 55.1579 140.754 55.0002 140.134 54.6847C139.524 54.3692 139.04 53.9118 138.683 53.3125C138.325 52.7131 138.147 51.9875 138.147 51.1358V50.915C138.147 50.0632 138.325 49.3377 138.683 48.7383C139.04 48.1389 139.524 47.6815 140.134 47.3661C140.754 47.0506 141.443 46.8929 142.2 46.8929C142.947 46.8929 143.588 47.0243 144.125 47.2872C144.661 47.5501 145.092 47.9128 145.418 48.3755C145.754 48.8277 145.975 49.3429 146.08 49.9213L144.156 50.3314C144.114 50.0159 144.019 49.732 143.872 49.4796C143.725 49.2273 143.515 49.0275 143.241 48.8803C142.978 48.733 142.647 48.6594 142.248 48.6594C141.848 48.6594 141.485 48.7488 141.159 48.9276C140.844 49.0958 140.591 49.3534 140.402 49.7005C140.223 50.0369 140.134 50.4523 140.134 50.9465V51.1042C140.134 51.5985 140.223 52.0191 140.402 52.3661C140.591 52.7026 140.844 52.9602 141.159 53.139C141.485 53.3072 141.848 53.3913 142.248 53.3913C142.847 53.3913 143.299 53.2389 143.604 52.9339C143.92 52.6185 144.119 52.2084 144.203 51.7036L146.128 52.161C145.991 52.7183 145.754 53.2283 145.418 53.691C145.092 54.1432 144.661 54.5007 144.125 54.7636C143.588 55.0265 142.947 55.1579 142.2 55.1579ZM151.49 55.1579C150.711 55.1579 150.012 55.0002 149.392 54.6847C148.771 54.3692 148.282 53.9118 147.925 53.3125C147.567 52.7131 147.389 51.9928 147.389 51.1516V50.8992C147.389 50.058 147.567 49.3377 147.925 48.7383C148.282 48.1389 148.771 47.6815 149.392 47.3661C150.012 47.0506 150.711 46.8929 151.49 46.8929C152.268 46.8929 152.967 47.0506 153.587 47.3661C154.208 47.6815 154.697 48.1389 155.054 48.7383C155.412 49.3377 155.591 50.058 155.591 50.8992V51.1516C155.591 51.9928 155.412 52.7131 155.054 53.3125C154.697 53.9118 154.208 54.3692 153.587 54.6847C152.967 55.0002 152.268 55.1579 151.49 55.1579ZM151.49 53.3913C152.099 53.3913 152.604 53.1968 153.004 52.8077C153.403 52.4081 153.603 51.8403 153.603 51.1042V50.9465C153.603 50.2104 153.403 49.6479 153.004 49.2588C152.615 48.8592 152.11 48.6594 151.49 48.6594C150.88 48.6594 150.375 48.8592 149.975 49.2588C149.576 49.6479 149.376 50.2104 149.376 50.9465V51.1042C149.376 51.8403 149.576 52.4081 149.975 52.8077C150.375 53.1968 150.88 53.3913 151.49 53.3913Z" fill="#929292"/>
<path d="M27.4729 75.9277L27.4805 75.9375L27.4512 75.9516L27.4729 75.9277Z" fill="#929292"/>
<path d="M27.4936 75.9078L27.4428 75.9448L27.4375 75.9374L27.4936 75.9078Z" fill="#929292"/>
<path d="M32.9592 39.8287C32.8919 39.8045 32.8288 39.7803 32.7657 39.7614C32.6742 39.7225 32.5869 39.6941 32.4944 39.6699C32.3976 39.6362 32.3009 39.6026 32.2042 39.5732C32.1653 39.5584 32.1263 39.549 32.0832 39.5395C31.8708 39.4722 31.6426 39.4039 31.4155 39.346C29.079 38.7456 25.9822 38.5868 22.8224 40.2945C22.8171 40.2945 22.8129 40.2998 22.8077 40.304C22.5805 40.406 22.3629 40.5216 22.1452 40.6373C18.9812 42.3934 16.7403 45.3745 15.8697 48.7856C15.7435 49.2746 15.6467 49.7825 15.5794 50.2904C15.7876 49.4828 16.0684 48.7036 16.4112 47.9539C17.9454 44.63 20.7509 42.1484 23.9202 41.0306C25.5028 40.4691 27.1621 40.2367 28.7541 40.3292C30.3556 40.4165 31.8898 40.8276 33.2736 41.4954L35.7415 34.3733C34.2893 35.8655 33.3167 37.7719 32.9592 39.8287ZM42.9592 36.0547C39.2 31.734 33.6595 29 27.4954 29C16.1935 29 7 38.1977 7 49.5007C7 59.5407 14.2524 67.9203 23.794 69.6669C24.9938 69.8846 26.2325 70.0003 27.4954 70.0003C38.8025 70.0003 48.0003 60.8025 48.0003 49.5007C48.0013 44.3618 46.1002 39.6594 42.9592 36.0547ZM9.82126 49.4996C9.82126 39.7551 17.7509 31.8255 27.4954 31.8255C28.9034 31.8255 30.2725 31.9948 31.589 32.305C31.7678 32.3533 31.9465 32.3964 32.1263 32.4448C30.8393 32.3628 29.5522 32.4017 28.2893 32.571C26.7656 32.7697 25.2798 33.1514 23.8666 33.6888C23.3681 34.6709 23.1021 35.7109 23.039 36.7519C23.0295 36.9307 23.0243 37.1094 23.0243 37.284C22.9759 37.1389 22.9328 36.9937 22.8939 36.8486C22.6615 35.9822 22.589 35.0779 22.6952 34.1735C22.1147 34.4396 21.5532 34.7298 21.0064 35.0442C19.5406 35.8959 18.2051 36.9317 17.0337 38.1115C16.9559 39.4228 17.203 40.6762 17.7014 41.8034C16.9906 41.0295 16.4533 40.0905 16.1483 39.0653C16.1294 39.0842 16.1147 39.1042 16.1 39.1189C15.8581 39.4039 15.6257 39.6899 15.4028 39.9854C13.9033 41.9496 12.8244 44.1904 12.2188 46.5027C11.6183 48.8203 11.4732 51.2294 11.8023 53.5333C12.1262 55.8361 12.9054 58.038 14.0526 59.9729C14.9285 61.4482 16.0169 62.7741 17.2556 63.8972C12.7634 60.6858 9.82126 55.4323 9.82126 49.4996ZM27.4965 67.1748C25.4649 67.1748 23.5048 66.8215 21.6804 66.1874C20.7803 65.5586 19.9433 64.8467 19.203 64.0591C17.8097 62.5786 16.7403 60.8414 16.0484 59.0033C15.8549 58.486 15.6951 57.9676 15.5647 57.4355C15.2167 56.0759 15.0716 54.6879 15.1241 53.3282C15.1672 52.2925 15.3176 51.2714 15.5794 50.2893C15.7876 49.4817 16.0684 48.7025 16.4112 47.9528C17.9454 44.6289 20.7509 42.1473 23.9202 41.0295C25.5028 40.468 27.1621 40.2356 28.7541 40.3282C30.3556 40.4154 31.8898 40.8266 33.2736 41.4943L35.7415 34.3723L35.8866 33.9464C35.9497 33.9801 36.0076 34.0095 36.0654 34.0484C41.4892 37.0674 45.1759 42.8634 45.1759 49.5017C45.1759 59.2442 37.2452 67.1748 27.4965 67.1748ZM32.9592 39.8287C32.8919 39.8045 32.8288 39.7803 32.7657 39.7614C32.6742 39.7225 32.5869 39.6941 32.4944 39.6699C32.3976 39.6362 32.3009 39.6026 32.2042 39.5732C32.1653 39.5584 32.1263 39.549 32.0832 39.5395C31.8708 39.4722 31.6426 39.4039 31.4155 39.346C29.079 38.7456 25.9822 38.5868 22.8224 40.2945C22.8171 40.2945 22.8129 40.2998 22.8077 40.304C22.5805 40.406 22.3629 40.5216 22.1452 40.6373C18.9812 42.3934 16.7403 45.3745 15.8697 48.7856C15.7435 49.2746 15.6467 49.7825 15.5794 50.2904C15.7876 49.4828 16.0684 48.7036 16.4112 47.9539C17.9454 44.63 20.7509 42.1484 23.9202 41.0306C25.5028 40.4691 27.1621 40.2367 28.7541 40.3292C30.3556 40.4165 31.8898 40.8276 33.2736 41.4954L35.7415 34.3733C34.2893 35.8655 33.3167 37.7719 32.9592 39.8287Z" fill="#929292"/>
<path d="M38.2274 61.8761C35.4408 61.7016 32.7846 60.5554 30.2536 59.0507C30.099 58.9592 29.997 58.7552 29.915 58.5859C28.3619 55.1989 25.9381 52.935 22.7688 51.6763C22.2704 49.8382 23.4702 47.7762 23.4702 47.7762C20.4028 48.6079 19.7782 50.5438 19.7109 50.7804C20.4565 45.9949 23.6594 42.7972 28.1831 42.3618C31.3861 42.0569 35.5954 43.6489 36.1811 46.3682C34.9813 46.6489 33.7762 46.9391 32.567 47.2241C32.5722 47.2672 32.5722 47.3114 32.5722 47.3545H37.2557C38.1317 49.6426 37.4787 53.5333 37.3819 53.6584C36.3903 48.1957 33.6953 50.997 30.5554 49.4544C30.976 51.7625 32.3893 52.7541 34.4019 53.0107C35.6164 53.1653 36.0812 53.7026 36.3136 55.0044C36.7184 57.3136 37.5502 59.5449 38.2274 61.8761Z" fill="#929292"/>
<path d="M38.2263 61.8761C38.0907 61.8667 37.955 61.8572 37.8204 61.8425C35.1832 61.5912 32.6627 60.4828 30.2536 59.0507C30.099 58.9581 29.997 58.7552 29.915 58.5859C28.5165 55.5333 26.4071 53.3892 23.6836 52.0832C23.3881 51.9328 23.0832 51.8025 22.7688 51.6773C22.2704 49.8392 23.4702 47.7772 23.4702 47.7772C20.4028 48.6089 19.7782 50.5448 19.7109 50.7814C20.4565 45.9959 23.6594 42.7982 28.1831 42.3629C31.241 42.0726 35.2179 43.509 36.0791 46.0106C36.1222 46.1263 36.1569 46.2472 36.1811 46.3681C34.9813 46.6489 33.7762 46.9391 32.567 47.2241C32.5722 47.2672 32.5722 47.3114 32.5722 47.3545H37.2557C38.1317 49.6426 37.4787 53.5333 37.3819 53.6584C36.3903 48.1957 33.6953 50.997 30.5554 49.4544C30.976 51.7625 32.3893 52.7541 34.4019 53.0107C35.6164 53.1652 36.0812 53.7026 36.3136 55.0044C36.7058 57.2199 37.4892 59.364 38.1474 61.5985C38.1737 61.6921 38.1979 61.7846 38.2263 61.8761Z" fill="#929292"/>
<path d="M42.9582 36.0547C40.1811 34.5111 36.9823 33.6309 33.5764 33.6309C29.691 33.6309 26.0716 34.7781 23.0379 36.7519C22.9896 36.7813 22.9412 36.815 22.8928 36.8486C17.672 40.3134 14.2324 46.2398 14.2324 52.9749C14.2324 60.0875 18.0737 66.3041 23.7929 69.6669C24.9927 69.8846 26.2314 70.0002 27.4943 70.0002C38.8015 70.0002 47.9992 60.8025 47.9992 49.5006C48.0003 44.3618 46.0991 39.6593 42.9582 36.0547ZM27.4954 67.1748C25.4638 67.1748 23.5038 66.8215 21.6794 66.1874C20.7793 65.5586 19.9422 64.8467 19.202 64.0591C17.8087 62.5785 16.7393 60.8414 16.0474 59.0033C15.8539 58.486 15.694 57.9676 15.5637 57.4355C15.2156 56.0759 15.0705 54.6878 15.1231 53.3282C15.1662 52.2925 15.3165 51.2714 15.5784 50.2893C15.7866 49.4817 16.0673 48.7025 16.4101 47.9528C17.9443 44.6289 20.7498 42.1473 23.9191 41.0295C25.5017 40.468 27.161 40.2356 28.753 40.3281C30.3545 40.4154 31.8887 40.8266 33.2725 41.4943L35.7404 34.3722L35.8856 33.9464C35.9487 33.98 36.0065 34.0095 36.0643 34.0484C41.4881 37.0673 45.1748 42.8634 45.1748 49.5017C45.1748 59.2441 37.2441 67.1748 27.4954 67.1748Z" fill="#929292"/>
<path d="M38.1443 61.6006C38.0381 61.6827 37.9318 61.7647 37.8204 61.8425C35.1831 61.5912 32.6626 60.4829 30.2536 59.0507C30.099 58.9581 29.997 58.7552 29.915 58.5859C28.5164 55.5333 26.4071 53.3892 23.6836 52.0832C24.7194 48.1736 28.2798 45.2903 32.5133 45.2903C33.7804 45.2903 34.9855 45.5469 36.079 46.0117C36.1222 46.1274 36.1569 46.2483 36.181 46.3692C34.9812 46.65 33.7762 46.9402 32.5669 47.2252C32.5722 47.2683 32.5722 47.3124 32.5722 47.3556H37.2557C38.1316 49.6437 37.4786 53.5343 37.3819 53.6595C36.3903 48.1968 33.6952 50.9981 30.5554 49.4555C30.976 51.7636 32.3892 52.7552 34.4019 53.0117C35.6164 53.1663 36.0811 53.7036 36.3135 55.0054C36.7026 57.2221 37.486 59.3651 38.1443 61.6006Z" fill="#929292"/>
</svg>
