<svg width="186" height="120" viewBox="0 0 186 120" fill="none" xmlns="http://www.w3.org/2000/svg">
  <path
    d="M101.149 44.1457C101.042 44.108 100.942 44.069 100.842 44.0378C100.703 43.9791 100.559 43.9304 100.412 43.8922C100.259 43.8389 100.105 43.7843 99.9519 43.7388C99.8891 43.7164 99.8249 43.6986 99.7595 43.6855C99.4217 43.5776 99.0615 43.471 98.7015 43.3787C94.1353 42.1096 89.2558 42.6483 85.0759 44.8829C85.0681 44.8829 85.0603 44.8907 85.0525 44.8985C84.6924 45.0597 84.3467 45.2443 84.001 45.4276C81.1925 46.9908 78.7884 49.1893 76.9806 51.8474C75.1729 54.5055 74.0117 57.5496 73.5897 60.7366C73.9186 59.4645 74.3601 58.2239 74.909 57.0299C76.0679 54.5021 77.7173 52.2295 79.7613 50.3443C81.8054 48.459 84.2034 46.9986 86.8163 46.0478C89.2733 45.1714 91.8801 44.793 94.485 44.9349C96.9724 45.0719 99.4078 45.7007 101.651 46.785L105.563 35.4895C103.257 37.8667 101.719 40.8827 101.149 44.1457ZM117.006 38.1651C113.6 34.2498 109.305 31.2075 104.482 29.2927C99.6593 27.3779 94.4482 26.6462 89.2843 27.159C84.1208 27.6718 79.155 29.414 74.8025 32.24C70.45 35.066 66.8375 38.8935 64.267 43.4024C61.6966 47.9112 60.243 52.9702 60.0279 58.1562C59.8129 63.3422 60.8426 68.5041 63.0308 73.2106C65.2191 77.9167 68.5024 82.0305 72.606 85.2073C76.7095 88.3841 81.514 90.5317 86.6174 91.4706C91.3052 92.3268 96.1236 92.1426 100.732 90.9314C105.341 89.7198 109.627 87.5106 113.288 84.46C116.95 81.4092 119.896 77.5912 121.92 73.276C123.944 68.961 124.995 64.2536 125 59.4872C125.007 51.6442 122.167 44.0654 117.006 38.1599V38.1651ZM64.4613 59.4872C64.4626 55.2543 65.422 51.0763 67.2676 47.2669C69.1131 43.4575 71.7969 40.1155 75.1177 37.4915C78.4385 34.8674 82.3101 33.0294 86.4422 32.1153C90.5743 31.2011 94.8596 31.2346 98.9771 32.2131C99.2604 32.2898 99.545 32.3587 99.8285 32.4355C95.374 32.1445 90.9093 32.8172 86.7383 34.4077C85.9724 35.9196 85.526 37.5731 85.4268 39.2651C85.4112 39.5485 85.4034 39.8332 85.4034 40.1088C85.3263 39.8783 85.2574 39.6481 85.1967 39.4185C84.8236 38.0367 84.7169 36.5965 84.8822 35.1748C83.962 35.5961 83.0716 36.0576 82.2046 36.5556C79.9006 37.8936 77.7828 39.5293 75.9059 41.4207C75.7865 43.4274 76.1493 45.4335 76.9639 47.2712C75.824 46.029 74.9818 44.5436 74.5008 42.9275C74.4696 42.9587 74.4475 42.9886 74.4241 43.012C74.0342 43.4644 73.6729 43.9221 73.3193 44.3863C70.9711 47.4651 69.2553 50.9784 68.271 54.7236C67.3197 58.3606 67.0953 62.1496 67.6107 65.8736C68.1163 69.4798 69.3288 72.9507 71.1786 76.0873C72.5521 78.4033 74.2637 80.5011 76.2568 82.311C72.6131 79.7235 69.6412 76.3013 67.5892 72.3308C65.5372 68.36 64.4647 63.9559 64.4613 59.486V59.4872ZM92.4874 87.5207C89.3477 87.5202 86.2304 86.9928 83.2653 85.9605C81.843 84.9721 80.5267 83.8392 79.3373 82.5802C77.1585 80.2625 75.4588 77.5374 74.3357 74.561C74.0315 73.7481 73.7754 72.9182 73.5689 72.0752C73.0227 69.9486 72.7876 67.7543 72.8709 65.5603C72.9356 63.9321 73.1775 62.3161 73.5923 60.7406C73.9212 59.4682 74.3628 58.2278 74.9116 57.0339C76.0705 54.506 77.7199 52.2334 79.7639 50.3482C81.808 48.4629 84.206 47.0025 86.8189 46.0517C89.2758 45.1753 91.883 44.797 94.4875 44.9388C96.975 45.0758 99.4103 45.7046 101.653 46.7889L105.566 35.4934L105.796 34.8173C105.896 34.8706 105.988 34.9174 106.079 34.9785C111.514 37.9884 115.794 42.7196 118.247 48.428C120.701 54.1365 121.188 60.4986 119.632 66.5142C118.077 72.5298 114.567 77.8579 109.654 81.6605C104.741 85.4632 98.7044 87.525 92.4924 87.5219L92.4874 87.5207ZM101.149 44.147C101.042 44.1093 100.942 44.0703 100.842 44.0391C100.703 43.9804 100.559 43.9317 100.412 43.8935C100.259 43.8402 100.105 43.7856 99.9519 43.7401C99.8891 43.7178 99.8249 43.6999 99.7595 43.6868C99.4217 43.5789 99.0615 43.4723 98.7015 43.3799C94.1353 42.1109 89.2558 42.6496 85.0759 44.8842C85.0681 44.8842 85.0603 44.892 85.0525 44.8998C84.6924 45.061 84.3467 45.2456 84.001 45.429C81.1925 46.9921 78.7884 49.1906 76.9806 51.8487C75.1729 54.5068 74.0117 57.551 73.5897 60.738C73.9186 59.4657 74.3601 58.2253 74.909 57.0313C76.0679 54.5034 77.7173 52.2308 79.7613 50.3456C81.8054 48.4603 84.2034 46.9999 86.8163 46.0491C89.2733 45.1727 91.8801 44.7943 94.485 44.9362C96.9724 45.0732 99.4078 45.702 101.651 46.7863L105.563 35.4908C103.257 37.8677 101.719 40.8832 101.149 44.1457V44.147Z"
    fill="#929292" />
  <path
    d="M109 79C104.546 78.5291 100.265 76.9933 96.5117 74.5196C96.2722 74.3272 96.0891 74.0722 95.9815 73.7824C94.9242 71.2977 93.3904 69.0499 91.4692 67.1691C89.548 65.2886 87.2773 63.8125 84.7888 62.8263C84.0082 59.9108 85.8878 56.6431 85.8878 56.6431C81.0836 57.9624 80.1104 61.0312 80 61.4082C81.1671 53.8198 86.1831 48.7492 93.2688 48.0589C98.2848 47.5754 104.879 50.0997 105.795 54.4112C103.916 54.8558 102.028 55.3212 100.135 55.7695C100.141 55.8383 100.144 55.9073 100.143 55.9761H107.481C108.852 59.6052 107.83 65.7742 107.679 65.9732C106.125 57.3112 101.901 61.754 96.9854 59.3064C97.1573 60.8207 97.8597 62.2223 98.965 63.257C100.071 64.2916 101.506 64.8904 103.011 64.945C104.913 65.1907 105.64 66.0419 106.003 68.1061C106.81 71.789 107.81 75.4255 109 79Z"
    fill="#929292" />
  <path
    d="M109 79C108.788 78.9844 108.576 78.9703 108.358 78.9468C104.134 78.3719 100.088 76.8604 96.5078 74.5205C96.2683 74.3281 96.085 74.0735 95.9774 73.7837C94.0564 69.2708 90.5924 65.6104 86.2211 63.4742C85.7589 63.2363 85.2813 63.0297 84.7884 62.8243C84.0078 59.9095 85.8873 56.6424 85.8873 56.6424C81.0835 57.9614 80.1104 61.0296 80 61.4051C81.1669 53.8183 86.1825 48.7486 93.2675 48.0586C98.056 47.5985 104.285 49.8779 105.634 53.843C105.702 54.0276 105.755 54.2175 105.793 54.4109C103.914 54.8553 102.027 55.3205 100.133 55.7689C100.139 55.8377 100.142 55.9067 100.141 55.9755H107.476C108.847 59.6039 107.825 65.7717 107.673 65.9706C106.119 57.3101 101.896 61.7523 96.9815 59.3051C97.1531 60.8188 97.8554 62.2202 98.9604 63.2547C100.066 64.2888 101.501 64.8878 103.005 64.9427C104.907 65.1883 105.634 66.0394 105.999 68.1031C106.765 71.639 107.724 75.1291 108.87 78.5583C108.916 78.7128 108.955 78.8546 109 79Z"
    fill="#929292" />
  <path
    d="M116.935 37.8653C112.024 35.1527 106.466 33.8232 100.855 34.0189C95.2447 34.2146 89.793 35.9283 85.084 38.9764C85.0067 39.0222 84.9293 39.0771 84.852 39.1307C80.4733 42.0231 76.9051 45.9797 74.4837 50.6278C72.0623 55.2758 70.8674 60.4621 71.0117 65.698C71.1559 70.9341 72.6345 76.0473 75.3082 80.5557C77.9818 85.0641 81.7624 88.8195 86.2938 91.4677C91.0208 92.3286 95.8799 92.1433 100.527 90.9255C105.175 89.7074 109.498 87.4861 113.19 84.4189C116.882 81.3515 119.853 77.5127 121.894 73.174C123.935 68.8355 124.995 64.1025 125 59.3101C125.006 51.4233 122.14 43.8027 116.935 37.8653ZM92.2093 87.4989C89.0432 87.4983 85.8996 86.9681 82.9095 85.9302C81.4752 84.9363 80.1478 83.7976 78.9484 82.5314C76.7512 80.2014 75.0372 77.4612 73.9047 74.4686C73.5978 73.6512 73.3396 72.8168 73.1313 71.9692C72.5805 69.831 72.3434 67.6248 72.4274 65.4188C72.4927 63.782 72.7366 62.1569 73.1549 60.5728C73.4867 59.2938 73.9319 58.0464 74.4853 56.846C75.6541 54.3043 77.3173 52.0194 79.3786 50.1239C81.4399 48.2283 83.8581 46.76 86.493 45.804C88.9707 44.9228 91.5998 44.5424 94.2263 44.685C96.7347 44.8229 99.1906 45.4551 101.452 46.5452L105.398 35.1881L105.63 34.5084C105.731 34.562 105.824 34.609 105.915 34.6705C111.396 37.6973 115.711 42.4546 118.185 48.1945C120.658 53.9343 121.149 60.3312 119.58 66.3793C118.011 72.4277 114.47 77.7842 109.516 81.6073C104.562 85.4301 98.4736 87.5026 92.2093 87.4989Z"
    fill="#929292" />
  <path
    d="M109 78.6137C108.831 78.7427 108.661 78.8713 108.478 79C104.189 78.4307 100.081 76.9332 96.4449 74.6147C96.2017 74.4241 96.0156 74.1718 95.9066 73.8847C93.9558 69.4136 90.4386 65.7874 86 63.6707C86.5348 61.6844 87.495 59.8348 88.8155 58.2465C90.1361 56.6585 91.7864 55.3688 93.655 54.4645C95.5235 53.5604 97.5669 53.0628 99.6468 53.0056C101.726 52.9483 103.795 53.3326 105.711 54.1326C105.78 54.3156 105.834 54.5037 105.873 54.6952C103.965 55.1356 102.049 55.5964 100.126 56.0407C100.132 56.1088 100.135 56.1772 100.134 56.2453H107.582C108.974 59.8402 107.936 65.9508 107.781 66.1479C106.204 57.5679 101.915 61.9686 96.9258 59.5441C97.1001 61.0438 97.8132 62.4323 98.9351 63.4571C100.057 64.4817 101.514 65.0751 103.042 65.1295C104.973 65.3728 105.711 66.216 106.082 68.2607C106.861 71.7621 107.835 75.2182 109 78.6137Z"
    fill="#929292" />
</svg>