<svg width="186" height="120" viewBox="0 0 186 120" fill="none" xmlns="http://www.w3.org/2000/svg">
<mask id="mask0_491_14222" style="mask-type:alpha" maskUnits="userSpaceOnUse" x="20" y="47" width="24" height="17">
<path d="M20 47H44V64H20V47Z" fill="#929292"/>
</mask>
<g mask="url(#mask0_491_14222)">
<path fill-rule="evenodd" clip-rule="evenodd" d="M43.9973 54.8599C43.7061 50.9501 40.7724 47.7782 36.977 47.1258C36.5285 47.0482 36.0685 47.0055 35.5987 47.002C35.5754 47.0016 35.5525 47 35.5292 47C35.5058 47 35.4829 47.0016 35.4596 47.002H35.1585C35.1352 47.0016 35.1123 47 35.0889 47C35.0652 47 35.0423 47.0016 35.019 47.002H29.0036C28.9807 47.0016 28.9573 47 28.934 47C28.9107 47 28.8878 47.0016 28.8645 47.002H28.5634C28.5401 47.0016 28.5171 47 28.4938 47C28.4705 47 28.4476 47.0016 28.4243 47.002C27.9544 47.0055 27.4945 47.0482 27.046 47.1258C23.2505 47.7782 20.3169 50.9501 20.0257 54.8599C20.0213 54.8796 20.0162 54.899 20.0119 54.9184C20.0047 54.9714 20 55.0248 20 55.0793C20 55.122 20.0024 55.164 20.0067 55.2051C20.0032 55.3031 20 55.4012 20 55.5001C20 58.3097 21.3629 60.8002 23.4627 62.3476C23.5615 62.4204 23.6654 62.486 23.767 62.5544C24.3838 62.9688 25.0544 63.3089 25.7712 63.5513C26.554 63.8167 27.3874 63.9709 28.2536 63.9954C28.2864 63.9978 28.3192 64.0002 28.3524 64.0002H29.1601C29.8223 64.0002 30.359 63.4631 30.359 62.8004C30.359 62.1376 29.8223 61.6002 29.1601 61.6002H28.3524C27.5656 61.5824 26.8164 61.414 26.13 61.1249C25.5653 60.8872 25.0441 60.5661 24.581 60.1786C24.4115 60.0362 24.2491 59.886 24.0962 59.7266C23.0877 58.6771 22.4523 57.2677 22.3998 55.7093C22.3974 55.6397 22.3946 55.5705 22.3946 55.5001C22.3946 52.1764 25.0493 49.4755 28.3524 49.4C28.3761 49.3996 28.3998 49.3984 28.4235 49.398H28.5638H30.3823H33.6407V51.9193C33.6407 52.9748 34.2777 53.7554 35.5422 53.7554C37.9846 53.7554 40.4298 54.6222 42.0899 55.8738C43.322 56.8023 44.0502 55.7931 43.9973 54.8599Z" fill="#929292"/>
</g>
<path fill-rule="evenodd" clip-rule="evenodd" d="M20.0027 66.1402C20.2939 70.0499 23.2276 73.2218 27.023 73.8743C27.4715 73.9518 27.9315 73.9945 28.4013 73.998C28.4246 73.9984 28.4475 74 28.4708 74C28.4942 74 28.5171 73.9984 28.5404 73.998H28.8415C28.8648 73.9984 28.8877 74 28.9111 74C28.9348 74 28.9577 73.9984 28.981 73.998H34.9964C35.0193 73.9984 35.0427 74 35.066 74C35.0893 74 35.1122 73.9984 35.1355 73.998H35.4366C35.4599 73.9984 35.4829 74 35.5062 74C35.5295 74 35.5528 73.9984 35.5757 73.998C36.0456 73.9945 36.5055 73.9518 36.954 73.8743C40.7495 73.2218 43.6831 70.0499 43.9743 66.1402C43.9787 66.1204 43.9838 66.1011 43.9881 66.0817C43.9953 66.0287 44 65.9753 44 65.9207C44 65.878 43.9976 65.8361 43.9933 65.795C43.9968 65.6969 44 65.5989 44 65.5C44 62.6904 42.6371 60.1999 40.5373 58.6525C40.4385 58.5798 40.3346 58.5141 40.233 58.4457C39.6162 58.0313 38.9456 57.6912 38.2288 57.4488C37.446 57.1839 36.6126 57.0293 35.7464 57.0047C35.7136 57.0024 35.6808 57 35.6476 57H34.8399C34.1777 57 33.641 57.537 33.641 58.1998C33.641 58.8625 34.1777 59.3999 34.8399 59.3999H35.6476C36.4344 59.4177 37.1836 59.5862 37.87 59.8753C38.4347 60.1129 38.9559 60.434 39.419 60.8215C39.5885 60.9639 39.7509 61.1142 39.9038 61.2735C40.9123 62.323 41.5477 63.7324 41.6002 65.2908C41.6026 65.3604 41.6054 65.43 41.6054 65.5C41.6054 68.8237 38.9507 71.5245 35.6476 71.6001C35.6239 71.6005 35.6002 71.6017 35.5765 71.602H35.4362H33.6177H30.3593V69.0807C30.3593 68.0253 29.7223 67.2447 28.4578 67.2447C26.0154 67.2447 23.5702 66.3779 21.9101 65.1263C20.678 64.1978 19.9498 65.207 20.0027 66.1402Z" fill="#929292"/>
<path fill-rule="evenodd" clip-rule="evenodd" d="M99.2639 58.9806C99.5956 58.9806 100.084 58.8643 100.462 58.536C100.814 58.2309 101 57.8054 101 57.306C101 56.15 99.9842 55.6301 99.2639 55.6301H93.6768V49.7115C93.6768 49.115 93.1481 48 91.8741 48C90.5988 48 90.07 49.115 90.07 49.7115V55.6301H85.7347C85.0256 55.6301 84 56.2266 84 57.306C84 58.406 85.1296 58.9806 85.7347 58.9806H90.07V65.8008C90.0798 70.3211 93.8184 74 98.4035 74H99.1945C99.4429 74 99.6858 73.9494 99.9162 73.8495C100.574 73.5663 101 72.926 101 72.2201C101 71.9519 100.936 71.6892 100.81 71.4375C100.503 70.8218 99.8842 70.4401 99.1945 70.4401H98.1634C95.7321 70.3307 93.7615 68.366 93.6768 65.9827V58.9806H99.2639Z" fill="#929292"/>
<path fill-rule="evenodd" clip-rule="evenodd" d="M111.432 70.5816C109.963 70.5816 108.805 70.0947 107.892 69.0934C106.985 68.0976 106.525 66.6695 106.525 64.8515V64.303C106.525 63.444 106.651 62.6465 106.9 61.9325C107.146 61.2253 107.493 60.6179 107.93 60.1269C108.366 59.6371 108.885 59.2514 109.473 58.9806C110.06 58.7097 110.718 58.5729 111.432 58.5729C112.122 58.5729 112.774 58.7152 113.371 58.9956C113.969 59.2774 114.494 59.6741 114.931 60.1747C115.369 60.6781 115.717 61.2923 115.963 62.0009C116.212 62.7149 116.339 63.5124 116.339 64.3714V64.7832C116.339 65.6654 116.212 66.4752 115.963 67.1893C115.716 67.8978 115.374 68.5134 114.944 69.0181C114.521 69.5147 114.005 69.9045 113.41 70.174C112.813 70.4449 112.147 70.5816 111.432 70.5816ZM120.236 69.8909C119.994 69.8909 119.797 69.6898 119.797 69.4408V56.7099C119.797 55.9958 119.139 55 118.068 55C116.996 55 116.339 55.9958 116.339 56.7099V57.8302C115.817 57.0327 115.164 56.4117 114.387 55.978C113.405 55.4309 112.299 55.1546 111.098 55.1546C110.003 55.1546 108.95 55.3611 107.97 55.7688C106.984 56.1791 106.109 56.7851 105.371 57.5675C104.634 58.3513 104.047 59.3184 103.628 60.4428C103.212 61.5631 103 62.8613 103 64.303V64.8515C103 66.3166 103.212 67.627 103.628 68.7459C104.047 69.8717 104.634 70.8388 105.371 71.6212C106.111 72.4064 106.986 73.0055 107.974 73.405C108.953 73.8003 110.027 74 111.165 74C112.279 74 113.356 73.7045 114.36 73.1204C115.237 72.6116 115.957 71.8593 116.502 70.8812C117.026 72.3202 118.3 73.3544 119.814 73.5185L120.236 73.5199C121.208 73.5199 122 72.706 122 71.706C122 71.4147 121.929 71.1302 121.79 70.858C121.481 70.2616 120.885 69.8909 120.236 69.8909Z" fill="#929292"/>
<path fill-rule="evenodd" clip-rule="evenodd" d="M146 55C144.622 55 144 55.9918 144 56.6959V72.3041C144 73.1371 144.748 74 146 74C147.378 74 148 73.0082 148 72.3041V56.6959C148 55.8534 147.312 55 146 55Z" fill="#929292"/>
<path fill-rule="evenodd" clip-rule="evenodd" d="M146.5 48C145.813 48 145.218 48.2468 144.732 48.732C144.245 49.2172 144 49.8124 144 50.4993C144 51.1876 144.245 51.7828 144.732 52.268C145.218 52.7532 145.812 53 146.5 53C147.187 53 147.782 52.7532 148.268 52.268C148.755 51.7814 149 51.1876 149 50.4993C149 49.8138 148.755 49.2186 148.268 48.732C147.781 48.2468 147.187 48 146.5 48Z" fill="#929292"/>
<path fill-rule="evenodd" clip-rule="evenodd" d="M166.118 57.1084C164.864 55.8113 163.165 55.1533 161.07 55.1533C158.599 55.1533 156.755 56.0949 155.579 57.9537V56.6959C155.579 56.1139 154.881 55 153.79 55C152.68 55 152 56.099 152 56.6959V72.3041C152 72.9594 152.486 74 153.79 74C155.054 74 155.579 72.8956 155.579 72.3041V64.1595C155.579 62.4377 156.014 61.0511 156.874 60.0363C157.724 59.0323 158.871 58.5438 160.38 58.5438C161.64 58.5438 162.603 58.9305 163.327 59.7256C164.054 60.522 164.422 61.7621 164.422 63.4119V72.3041C164.422 73.1262 165.048 74 166.212 74C167.445 74 168 73.0082 168 72.3041V62.8678C168 60.3375 167.367 58.4 166.118 57.1084Z" fill="#929292"/>
<path fill-rule="evenodd" clip-rule="evenodd" d="M141.787 70.9209C140.87 66.4626 137.714 62.8408 133.473 61.3203L139.771 54.3514V53.9774C139.771 52.4977 138.87 52.2773 138.334 52.2773C137.292 52.2773 136.453 52.9805 135.767 53.6673C135.201 54.2372 130.526 59.3931 129.52 60.5029V49.7001C129.52 48.9874 128.908 48 127.759 48C126.523 48 126 49.2172 126 49.7001V72.2986C126 73.1228 126.616 74 127.759 74C128.975 74 129.52 73.1459 129.52 72.2986V63.8989C129.586 63.9017 129.654 63.9044 129.72 63.9085C133.76 64.1628 137.234 66.9563 138.362 70.8624C138.433 71.1085 138.494 71.3533 138.542 71.5914C138.66 72.1626 138.727 72.7596 138.739 73.3689L138.743 73.6233L138.966 73.7443C139.271 73.9116 139.616 74 139.964 74C140.902 74 141.73 73.3649 141.98 72.4563L142 72.3788L141.993 72.2986C141.947 71.828 141.878 71.3642 141.787 70.9209Z" fill="#929292"/>
<mask id="mask1_491_14222" style="mask-type:alpha" maskUnits="userSpaceOnUse" x="64" y="48" width="18" height="26">
<path d="M64 48H82V74H64V48Z" fill="#929292"/>
</mask>
<g mask="url(#mask1_491_14222)">
<path fill-rule="evenodd" clip-rule="evenodd" d="M74.5276 59.1742C73.4859 59.0148 72.5655 58.8227 71.7902 58.6047C71.032 58.3921 70.3925 58.1223 69.8888 57.8008C69.4022 57.4901 69.0304 57.114 68.7851 56.6794C68.5425 56.2502 68.4186 55.7188 68.4186 55.1002V54.8904C68.4186 54.3181 68.5425 53.8099 68.7851 53.3793C69.033 52.9419 69.3746 52.5686 69.7991 52.2688C70.233 51.9623 70.734 51.7225 71.2878 51.5576C71.8456 51.3927 72.4442 51.3082 73.0679 51.3082C73.7799 51.3082 74.4696 51.4091 75.1144 51.6094C75.7552 51.8083 76.3288 52.0985 76.818 52.4719C77.2992 52.8397 77.6856 53.3112 77.9691 53.8726C78.0996 54.1342 78.8591 55.1847 79.9232 55.1847C80.0327 55.1847 80.1434 55.1738 80.2542 55.1493C80.659 55.062 80.9728 54.8182 81.1614 54.4435C81.4726 53.8249 81.3605 53.0441 81.2168 52.698C80.8304 51.7661 80.2555 50.9445 79.5066 50.255C78.7616 49.571 77.8385 49.0178 76.7626 48.6104C75.6893 48.2044 74.4577 48 73.1022 48C71.9286 48 70.8369 48.1621 69.8572 48.4851C68.8709 48.808 68.0098 49.2781 67.2965 49.8817C66.5818 50.4866 66.0174 51.2115 65.6179 52.0358C65.2171 52.8643 65.014 53.7894 65.014 54.7855V55.2038C65.014 56.2924 65.2052 57.2516 65.5836 58.0555C65.9607 58.8608 66.5106 59.5584 67.2173 60.1307C67.9162 60.6962 68.768 61.1581 69.7503 61.5041C70.7235 61.8475 71.8271 62.1037 73.0257 62.2672C75.022 62.5615 76.4751 63.037 77.3454 63.6815C78.1748 64.296 78.5954 65.2021 78.5954 66.3766V66.5851C78.5954 67.8182 78.1787 68.8183 77.3573 69.5595C76.5252 70.3116 75.2528 70.6918 73.5742 70.6918C71.6293 70.6918 70.0958 70.1767 69.0185 69.1616C67.9478 68.1547 67.4046 66.6069 67.4046 64.5603C67.4046 64.0099 67.0499 62.9689 65.7062 62.9689C64.3072 62.9689 64 64.2687 64 64.7702C64 66.1545 64.1886 67.2459 64.6276 68.419C65.0456 69.535 65.6641 70.5201 66.4658 71.3485C67.2675 72.1783 68.2788 72.835 69.4708 73.2997C70.6575 73.7643 72.0381 74 73.5742 74C74.9271 74 76.1389 73.8188 77.1779 73.4618C78.2223 73.1021 79.1136 72.5884 79.827 71.9371C80.543 71.2817 81.0902 70.4874 81.4554 69.5772C81.8167 68.6725 82 67.6655 82 66.5851V66.1668C82 64.2279 81.3776 62.6582 80.1513 61.5001C78.9435 60.3596 77.0514 59.5775 74.5276 59.1742Z" fill="#929292"/>
</g>
</svg>
