<svg width="186" height="120" viewBox="0 0 186 120" fill="none" xmlns="http://www.w3.org/2000/svg">
<path d="M79.5825 44.0001C80.7495 43.9935 82.0624 44.2545 83.5213 44.7832L82.9085 47.1621C81.5535 46.6731 80.4513 46.4286 79.6019 46.4286C78.9146 46.4286 78.3732 46.5674 77.9778 46.8449C77.5822 47.1225 77.3845 47.4992 77.3845 47.9749C77.3845 48.4903 77.566 48.9001 77.9291 49.2041C78.2987 49.508 78.9697 49.7888 79.9423 50.0466C81.3752 50.4232 82.3932 50.9454 82.9961 51.6127C83.5991 52.2736 83.9005 53.1855 83.9005 54.3485C83.9005 55.756 83.4338 56.8365 82.5001 57.5899C81.5729 58.3366 80.247 58.7099 78.5223 58.7099C77.1154 58.7099 75.608 58.3861 74 57.7386L74.7197 55.429C75.608 55.7528 76.3342 55.9807 76.8982 56.1129C77.4623 56.2385 77.9972 56.3013 78.5029 56.3013C79.2356 56.3013 79.7997 56.1426 80.1951 55.8255C80.5972 55.5017 80.7981 55.0556 80.7981 54.4873C80.7981 54.1239 80.7139 53.8199 80.5453 53.5754C80.3767 53.3308 80.0915 53.1128 79.6894 52.9212C79.2875 52.723 78.7072 52.528 77.9486 52.3363C76.6842 52.0257 75.7603 51.5434 75.1768 50.8891C74.5932 50.2349 74.3016 49.3726 74.3016 48.302C74.3016 46.9342 74.7619 45.8768 75.6826 45.1301C76.6097 44.3768 77.9097 44.0001 79.5825 44.0001ZM94.6573 46.5377H90.8352V58.5712H87.7912V46.5377H83.8232V44.1785H94.6573V46.5377ZM97.3517 54.8739L96.2041 58.5712H93.2086L97.7893 44.1785H101.816L106.513 58.5712H103.566L102.37 54.8739H97.3517ZM99.7636 46.835L98.0325 52.5841H101.68L99.8998 46.835H99.7636ZM107.846 44.1785H110.89V58.5712H107.846V44.1785ZM119.799 58.5712H116.326L111.172 50.8793L115.889 44.1785H119.322L114.479 50.8396L119.799 58.5712ZM121.044 44.1785H124.088V58.5712H121.044V44.1785ZM131.868 52.1976C131.402 51.5235 130.672 50.3242 129.68 48.5995V58.5712H126.909V44.1785H129.321L133.619 50.4332C134.164 51.2195 134.923 52.4355 135.895 54.0809V44.1785H138.676V58.5712H136.245L131.868 52.1976ZM152.361 57.6791C151.615 58.0161 150.821 58.2771 149.977 58.4622C149.135 58.6405 148.308 58.7297 147.498 58.7297C145.307 58.7297 143.611 58.0921 142.412 56.8167C141.212 55.5346 140.612 53.7241 140.612 51.3848C140.612 49.0323 141.231 47.215 142.469 45.933C143.714 44.6444 145.472 44.0001 147.741 44.0001C148.538 44.0001 149.336 44.0992 150.134 44.2975C150.93 44.4891 151.647 44.7601 152.283 45.1103L151.388 47.3009C150.713 47.0168 150.124 46.8119 149.618 46.6864C149.112 46.5542 148.606 46.4881 148.101 46.4881C146.668 46.4881 145.582 46.8978 144.843 47.7172C144.104 48.5366 143.734 49.7393 143.734 51.3253C143.734 52.898 144.075 54.1173 144.755 54.9829C145.442 55.8486 146.412 56.2814 147.663 56.2814C148.298 56.2814 148.921 56.1922 149.53 56.0138V51.2658H152.361V57.6791ZM78.1236 68.3962H83.3462V70.7355H78.1236V76.8415H75.0795V62.4488H84.1632V64.7782H78.1236V68.3962ZM87.5772 73.1442L86.4296 76.8415H83.4342L88.0149 62.4488H92.0411L96.7385 76.8415H93.7918L92.5955 73.1442H87.5772ZM89.9891 65.1053L88.258 70.8544H91.905L90.1252 65.1053H89.9891ZM103.518 62.2704C104.263 62.2704 105.006 62.3696 105.745 62.5678C106.49 62.7594 107.158 63.0303 107.748 63.3806L106.844 65.5315C106.286 65.2606 105.771 65.0656 105.297 64.9467C104.831 64.8211 104.357 64.7584 103.877 64.7584C102.535 64.7584 101.514 65.1714 100.814 65.9974C100.12 66.8235 99.7733 68.0228 99.7733 69.5956C99.7733 71.1947 100.12 72.4074 100.814 73.2334C101.514 74.0528 102.535 74.4625 103.877 74.4625C104.915 74.4625 105.998 74.2213 107.126 73.7389L107.865 76.0088C106.406 76.6696 104.944 77 103.479 77C101.274 77 99.5853 76.369 98.4117 75.1068C97.2382 73.838 96.6514 72.0207 96.6514 69.655C96.6514 68.1286 96.9238 66.8103 97.4684 65.7C98.013 64.5899 98.7975 63.7407 99.8219 63.1526C100.853 62.5644 102.085 62.2704 103.518 62.2704ZM109.382 62.4488H112.427V76.8415H109.382V62.4488ZM124.088 76.8415H115.248V62.4488H118.156V74.4824H124.088V76.8415ZM125.45 62.4488H128.494V76.8415H125.45V62.4488ZM140.671 64.8079H136.849V76.8415H133.804V64.8079H129.837V62.4488H140.671V64.8079ZM142.023 62.4488H145.067V76.8415H142.023V62.4488ZM150.931 68.2971H156.494V70.5471H150.931V74.5517H157.292V76.8415H147.888V62.4488H157.088V64.7386H150.931V68.2971ZM163.682 62.2704C164.849 62.2638 166.163 62.5249 167.621 63.0535L167.008 65.4324C165.654 64.9434 164.551 64.6989 163.702 64.6989C163.015 64.6989 162.473 64.8377 162.077 65.1152C161.682 65.3928 161.484 65.7695 161.484 66.2452C161.484 66.7606 161.666 67.1704 162.029 67.4744C162.398 67.7783 163.069 68.0591 164.042 68.3168C165.474 68.6935 166.493 69.2156 167.096 69.883C167.699 70.5439 168 71.4558 168 72.6188C168 74.0263 167.534 75.1068 166.6 75.8601C165.673 76.6069 164.347 76.9802 162.622 76.9802C161.215 76.9802 159.707 76.6564 158.1 76.0088L158.82 73.6993C159.707 74.0231 160.434 74.251 160.998 74.3832C161.562 74.5087 162.097 74.5716 162.602 74.5716C163.335 74.5716 163.899 74.4129 164.295 74.0957C164.697 73.7719 164.898 73.3258 164.898 72.7575C164.898 72.3942 164.813 72.0902 164.645 71.8456C164.477 71.6011 164.191 71.3831 163.789 71.1915C163.387 70.9932 162.806 70.7983 162.049 70.6066C160.784 70.296 159.86 69.8137 159.277 69.1594C158.693 68.5052 158.402 67.6429 158.402 66.5723C158.402 65.2044 158.862 64.1472 159.782 63.4004C160.709 62.6471 162.01 62.2704 163.682 62.2704Z" fill="#929292"/>
<path d="M64 49V46.3713L46.3873 38L15 44.4248V47.3451L46.092 42.4779L64 49Z" fill="#929292"/>
<path d="M64 50.3955V53L43.7304 49.279L15 52.3489V49.279L44.5177 45L64 50.3955Z" fill="#929292"/>
<path d="M64 54.1V57L41.8621 55.5501L15 57V53.4998L42.1564 51L64 54.1Z" fill="#929292"/>
<path d="M64 58.6221V61.2887L39.4608 62L15 61.2887V58.6221L39.9916 58L64 58.6221Z" fill="#929292"/>
<path d="M64 63V65.9233L37.1148 69L15 65.6152V63.0003L37.3504 64.6155L64 63Z" fill="#929292"/>
<path d="M64 67.66V70.5226L34.8356 75L15 69.642V67L35.0713 71.0004L64 67.66Z" fill="#929292"/>
<path d="M15 71V73.5969L32.714 82L64 75.5828V72.6034L32.9495 77.6455L15 71Z" fill="#929292"/>
</svg>
