<svg width="186" height="120" viewBox="0 0 186 120" fill="none" xmlns="http://www.w3.org/2000/svg">
<path fill-rule="evenodd" clip-rule="evenodd" d="M55 59.5C55 69.7173 46.7173 78 36.5 78C26.2827 78 18 69.7173 18 59.5C18 49.2827 26.2827 41 36.5 41C46.7173 41 55 49.2827 55 59.5ZM52 59C52 67.8366 44.8366 75 36 75C27.1634 75 20 67.8366 20 59C20 50.1634 27.1634 43 36 43C44.8366 43 52 50.1634 52 59Z" fill="#929292"/>
<path d="M25 70.1422C27.7003 73.0381 31.4607 75 36.0204 75C40.0184 75 43.4117 73.5022 46 71.1756C45.9231 71.1402 45.8371 71.1014 45.7422 71.0597C45.2559 70.846 44.5375 70.5576 43.6204 70.2644C41.7856 69.6778 39.1603 69.0738 36.0093 69.0084C32.8381 68.9427 29.8953 69.2714 27.7431 69.6176C26.6679 69.7905 25.7922 69.9673 25.1867 70.1006C25.1213 70.1151 25.059 70.1289 25 70.1422Z" fill="#929292"/>
<path d="M29.3446 59.7045C23.566 59.7045 20.0346 58.1925 20.0346 58.1925C19.9214 59.6753 20.0877 61.2143 20.5098 62.7264C20.6832 62.6744 20.9106 62.6077 21.1836 62.5311C21.8444 62.3457 22.7739 62.1018 23.8505 61.8675C25.9914 61.4015 28.7632 60.962 31.1685 61.1194C33.4927 61.2714 35.3571 62.2023 37.1146 63.0799C37.2192 63.1321 37.3235 63.1842 37.4274 63.2359C39.3005 64.1673 41.1039 65 43.4269 65C45.8065 65 47.8359 64.4174 49.2738 63.8318C49.9917 63.5393 50.5587 63.2475 50.9437 63.0303C51.1361 62.9219 51.2827 62.8323 51.3796 62.7709C51.4281 62.7402 51.4641 62.7166 51.4872 62.7012C51.4988 62.6935 51.5071 62.6879 51.5121 62.6845L51.5174 62.6808C51.5174 62.6808 51.5173 62.6809 51.5614 62.7371C51.9668 61.1764 52.0979 59.5776 51.9265 58.0246C51.9265 58.0246 49.0081 56 44.5137 56C42.4074 56 40.213 56.8135 37.8809 57.6782C35.2366 58.6585 32.4153 59.7045 29.3446 59.7045Z" fill="#929292"/>
<path d="M24.0554 68.9059C22.6906 67.3241 21.6577 65.5132 21 63.6311C21.1675 63.5791 21.3922 63.511 21.6649 63.432C22.3026 63.2473 23.2008 63.0041 24.2404 62.7706C26.3319 62.3007 28.9472 61.8813 31.1596 62.0307C33.2143 62.1695 34.8638 63.0181 36.6464 63.9353C36.7339 63.9803 36.8217 64.0254 36.9099 64.0707C38.7721 65.0266 40.7831 66.0058 43.3964 66.0058C45.9537 66.0058 48.1237 65.3604 49.6512 64.7181C50.1794 64.496 50.6324 64.2736 51 64.0771C50.2028 66.2578 48.894 68.3096 47.1496 70C47.1152 69.9837 47.0707 69.9631 47.0163 69.9384C46.8778 69.8755 46.6753 69.7869 46.4129 69.6808C45.8882 69.4688 45.1237 69.1868 44.1536 68.9014C42.2139 68.3309 39.4472 67.7456 36.1278 67.6823C32.8289 67.6194 29.7774 67.9338 27.5528 68.2629C26.4396 68.4276 25.5313 68.5964 24.8998 68.7243C24.584 68.7883 24.3374 68.842 24.1688 68.88C24.1259 68.8897 24.088 68.8983 24.0554 68.9059Z" fill="#929292"/>
<path d="M66.4996 52.3333H60V49.2778H76.6412V52.3333H70.1416V68.7222H66.4996V52.3333ZM91.9253 68.7222L87.9191 63.0278C87.751 63.0463 87.4989 63.0556 87.1627 63.0556H82.7363V68.7222H79.0943V49.2778H87.1627C88.8623 49.2778 90.3378 49.5556 91.5891 50.1111C92.8592 50.6667 93.8304 51.463 94.5027 52.5C95.1751 53.537 95.5113 54.7685 95.5113 56.1944C95.5113 57.6574 95.1471 58.9167 94.4187 59.9722C93.709 61.0278 92.6817 61.8148 91.337 62.3333L95.8475 68.7222H91.9253ZM91.8413 56.1944C91.8413 54.9537 91.4304 54 90.6086 53.3333C89.7868 52.6667 88.5821 52.3333 86.9946 52.3333H82.7363V60.0833H86.9946C88.5821 60.0833 89.7868 59.75 90.6086 59.0833C91.4304 58.3981 91.8413 57.4352 91.8413 56.1944ZM99.3056 49.2778H102.948V68.7222H99.3056V49.2778ZM111.95 52.3333H105.45V49.2778H122.091V52.3333H115.592V68.7222H111.95V52.3333ZM133.432 69C131.434 69 129.632 68.5741 128.026 67.7222C126.419 66.8519 125.159 65.6574 124.243 64.1389C123.328 62.6019 122.871 60.8889 122.871 59C122.871 57.1111 123.328 55.4074 124.243 53.8889C125.159 52.3519 126.419 51.1574 128.026 50.3056C129.632 49.4352 131.434 49 133.432 49C135.431 49 137.233 49.4352 138.839 50.3056C140.446 51.1574 141.706 52.3426 142.622 53.8611C143.537 55.3796 143.994 57.0926 143.994 59C143.994 60.9074 143.537 62.6204 142.622 64.1389C141.706 65.6574 140.446 66.8519 138.839 67.7222C137.233 68.5741 135.431 69 133.432 69ZM133.432 65.8333C134.74 65.8333 135.917 65.5463 136.962 64.9722C138.008 64.3796 138.83 63.5648 139.428 62.5278C140.025 61.4722 140.324 60.2963 140.324 59C140.324 57.7037 140.025 56.537 139.428 55.5C138.83 54.4444 138.008 53.6296 136.962 53.0556C135.917 52.463 134.74 52.1667 133.432 52.1667C132.125 52.1667 130.948 52.463 129.903 53.0556C128.857 53.6296 128.035 54.4444 127.437 55.5C126.84 56.537 126.541 57.7037 126.541 59C126.541 60.2963 126.84 61.4722 127.437 62.5278C128.035 63.5648 128.857 64.3796 129.903 64.9722C130.948 65.5463 132.125 65.8333 133.432 65.8333ZM165 49.2778V68.7222H162.002L151.188 55.5556V68.7222H147.574V49.2778H150.572L161.386 62.4444V49.2778H165Z" fill="#929292"/>
</svg>
