<?xml version="1.0" encoding="UTF-8"?>
<svg xmlns="http://www.w3.org/2000/svg">

  <symbol id="icon-circle" viewBox="0 0 16 16" fill="none">
    <path d="M1 8C1 4.13401 4.13401 1 8 1C11.866 1 15 4.13401 15 8C15 11.866 11.866 15 8 15C4.13401 15 1 11.866 1 8Z"
      stroke="white" stroke-width="2" />
  </symbol>
  <symbol id="icon-arrow-up" viewBox="0 0 28 28">
    <path
      d="M3.4 3.4 5.7 5.7 8.1 3.4 5.7 1 3.4 3.4ZM8.1 3.4 10.5 5.7 12.8 3.4 10.5 1 8.1 3.4ZM12.8 3.4 15.2 5.7 17.5 3.4 15.2 1 12.8 3.4ZM17.5 3.4 19.9 5.7 22.3 3.4 19.9 1 17.5 3.4ZM22.3 3.4 24.6 5.7 27 3.4 24.6 1 22.3 3.4Z" />
    <path d="M19.9087 5.72727L22.2724 8.09094L24.6361 5.72731L22.2723 3.36364L19.9087 5.72727Z" />
    <path d="M17.545 8.09093L19.9087 10.4546L22.2724 8.09094L19.9087 5.72727L17.545 8.09093Z" />
    <path d="M15.182 10.4546L17.5456 12.8182L19.9087 10.4546L17.545 8.09093L15.182 10.4546Z" />
    <path d="M12.8176 12.8182L15.1812 15.1819L17.5456 12.8182L15.182 10.4546L12.8176 12.8182Z" />
    <path d="M10.4539 15.1818L12.8175 17.5455L15.1812 15.1819L12.8176 12.8182L10.4539 15.1818Z" />
    <path d="M8.09085 17.5455L10.4545 19.9091L12.8175 17.5455L10.4539 15.1818L8.09085 17.5455Z" />
    <path d="M5.72714 19.9091L8.09078 22.2727L10.4545 19.9091L8.09085 17.5455L5.72714 19.9091Z" />
    <path d="M3.36343 22.2727L5.72707 24.6363L8.09078 22.2727L5.72714 19.9091L3.36343 22.2727Z" />
    <path
      d="M1 24.6 3.4 27 5.7 24.6 3.4 22.3 1 24.6ZM22.3 8.1 24.6 10.5 27 8.1 24.6 5.7 22.3 8.1ZM22.3 12.8 24.6 15.2 27 12.8 24.6 10.5 22.3 12.8ZM22.3 17.5 24.6 19.9 27 17.5 24.6 15.2 22.3 17.5ZM22.3 22.3 24.6 24.6 27 22.3 24.6 19.9 22.3 22.3Z" />
  </symbol>
  <symbol id="icon-cross" viewBox="0 0 26 26">
    <path
      d="M1 1H4.4V4.4H1V1ZM4.4 4.4 7.9 4.4V7.9H4.4L4.4 4.4ZM7.9 7.9 11.3 7.9V11.3H7.9L7.9 7.9ZM11.3 11.3H14.7V14.7H11.3V11.3ZM14.7 14.7H18.1V18.1H14.7V14.7ZM18.1 18.1H21.6V21.6H18.1V18.1ZM21.6 21.6H25V25H21.6V21.6ZM14.7 7.9H18.1V11.3H14.7V7.9ZM18.1 4.4H21.6V7.9L18.1 7.9V4.4ZM21.6 1H25V4.4L21.6 4.4V1ZM7.9 14.7H11.3V18.1H7.9V14.7ZM4.4 18.1H7.9L7.9 21.6H4.4V18.1ZM1 21.6H4.4L4.4 25H1V21.6Z" />
  </symbol>
  <symbol id="ill-blank" viewBox="0 0 100 100" fill="black">
    <path d="M55.125 11.5625H11.5625V88.4375H70.5V26.9375H55.125V11.5625Z" fill="white" />
    <path d="M60.25 11.5625H57.6875V24.375H70.5V21.8125H67.9375V19.25H65.375V16.6875H62.8125V14.125H60.25V11.5625Z"
      fill="white" />
    <path fill-rule="evenodd" clip-rule="evenodd"
      d="M9 9H60.25V11.5625H57.6875V24.375H70.5V21.8125H73.0625V75.625H80.75V78.1875H85.875V80.75H91V91H9V9ZM70.5 26.9375H55.125V11.5625H11.5625V88.4375H70.5V26.9375Z" />
    <path d="M67.9375 19.25H70.5V21.8125H67.9375V19.25Z" />
    <path d="M65.375 16.6875H67.9375V19.25H65.375V16.6875Z" />
    <path d="M62.8125 14.125H65.375V16.6875H62.8125V14.125Z" />
    <path d="M62.8125 14.125V11.5625H60.25V14.125H62.8125Z" />
    <path
      d="M31.8575 64.0625V42.344H44.3817L48.9494 46.9117V59.4948L44.3817 64.0625H31.8575ZM35.5411 60.8209H42.6431L45.2363 58.2277V48.1788L42.6431 45.5856H35.5411V60.8209Z" />
  </symbol>

  <symbol id="ill-gear" viewBox="0 0 100 100" fill="white">
    <path
      d="M87.2918 32.2275H88.5498H89.2538V35.954H87.2914H86.0334V37.212V39.0751H84.0711H82.813V40.3331V49.6966V50.9546H84.0711H86.0334V52.8177V54.0757H87.2914H89.2538V57.8021H87.2914H86.0334V59.0601V64.0446H77.63H76.372V65.3026V67.1657H74.4096H73.1516V68.4237V70.2868H71.1893H69.9313V71.5448V79.6503H64.7482H63.4902V80.9083V82.7717H59.5651V80.9083V79.6503H58.3071H56.3448V77.7872V76.5292H55.0868H45.4253H44.1673V77.7872V79.6503H42.205H40.947V80.9083V82.7717H37.0219V80.9083V79.6503H35.7639H30.5809V71.5448V70.2868H29.3229H27.3605V68.4237V67.1657H26.1025H24.1401V65.3026V64.0446H22.8821H14.4784V59.0601V57.8021H13.2204H11.258V54.0757H13.2204H14.4784V52.8177V50.9546H16.4407H17.6987V49.6966V40.3331V39.0751H16.4407H14.4784V37.212V35.954H13.2204H11.258V32.2275H13.2204H14.4784V30.9695V25.9851H22.8825H24.1405V24.7271V22.864H26.1028H27.3608V21.606V19.7429H29.3232H30.5812V18.4849V10.3791H35.7643H37.0223V9.12107V7.258H40.9473V9.12107V10.3791H42.2053H44.1677V12.2421V13.5001H45.4257H55.0871H56.3451V12.2421V10.3791H58.3075H59.5655V9.12107V7.258H63.4905V9.12107V10.3791H64.7485H69.9316V18.4849V19.7429H71.1896H73.152V21.606V22.864H74.41H76.3723V24.7271V25.9851H77.6303H86.0338V30.9695H87.2914V32.2275H87.2918ZM64.7482 60.3185H66.0062V59.0605V54.076H67.9686H69.2266V52.818V37.212V35.954H67.9686H66.0062V30.9695V29.7115H64.7482H59.5651V27.8481V26.5901H58.3071H42.2046H40.9466V27.8481V29.7115H35.7636H34.5056V30.9695V35.954H32.5432H31.2852V37.212V52.818V54.076H32.5432H34.5056V59.0605V60.3185H35.7636H40.9466V62.1815V63.4395H42.2046H58.3071H59.5651V62.1815V60.3185H64.7482Z"
      stroke="black" stroke-width="2.516" />
    <path
      d="M79.5576 63.3005L77.5338 63.8325L76.8689 61.2523L74.102 61.9795L73.4371 59.3993L70.6703 60.1265L70.0053 57.5463L67.2385 58.2735L66.5735 55.6933L63.8067 56.4206L63.1418 53.8404L60.3749 54.5676L59.71 51.9874L56.9432 52.7146L56.279 50.1372L53.5121 50.8644L52.8472 48.2842L45.832 50.1281L53.9887 81.7792L54.6537 84.3594L54.8322 85.0523L61.8519 83.2072L63.8757 82.6753L64.6187 82.48L63.9537 79.8998L65.2346 79.5632L66.5649 84.7249L69.3317 83.9977L69.6306 85.1576L69.8062 85.8512L70.6497 89.1243L83.2029 85.8248L82.3687 82.5878L80.3751 74.8454L80.1965 74.1525L77.4297 74.8797L76.4543 71.1072L81.9894 69.6524L80.3028 63.1076L79.5598 63.3029L79.5576 63.3005ZM81.0657 69.1524L75.5306 70.6073L76.8631 75.7655L79.6299 75.0383L81.6251 82.7803L81.6236 82.7807L82.2792 85.3248L71.2104 88.2341L70.5455 85.6539L70.5484 85.6532L69.8924 83.1076L67.1256 83.8348L65.7954 78.673L63.0285 79.4002L63.6935 81.9805L60.9266 82.7077L55.393 84.1621L54.728 81.5819L47.4152 53.2052L46.7506 50.6264L52.2872 49.1712L52.9522 51.7514L55.719 51.0241L56.3839 53.6044L59.1508 52.8771L59.8157 55.4573L62.5825 54.7301L63.2475 57.3103L66.0143 56.5831L66.6792 59.1633L69.4461 58.4361L70.111 61.0163L72.8778 60.289L73.5428 62.8692L76.3096 62.142L76.9745 64.7222L79.7414 63.995L81.0709 69.154L81.0657 69.1524Z"
      fill="#010101" />
    <path
      d="M78.3341 69.8449L81.1127 69.111L79.7959 63.9595L77.0173 64.6934L77.6759 67.2698L69.34 69.4714L69.9982 72.0464L70.6568 74.6229L73.4369 73.8886L74.7537 79.0401L77.5324 78.3063L78.841 83.4259L73.2838 84.8936L71.9751 79.774L69.1979 80.5074L67.8811 75.3559L65.1025 76.0898L64.4439 73.5133L61.6653 74.2472L62.3239 76.8236L59.5467 77.5571L60.2053 80.1335L57.4267 80.8674L50.1833 52.5307L52.9619 51.7969L52.3034 49.2204L46.7461 50.6881L47.4043 53.2632L54.648 81.6012L54.6484 81.6026L55.3066 84.1776L60.8639 82.7099L60.8635 82.7086L63.6407 81.9751L62.9825 79.4001L65.7611 78.6662L67.0786 83.8205L69.8572 83.0866L70.5066 85.6271L70.5022 85.6283L71.1607 88.2047L82.2753 85.2693L81.6259 82.7288L81.6274 82.7284L79.6513 74.9978L76.8741 75.7312L76.2155 73.1548L76.2126 73.1556L75.554 70.5791L78.3341 69.8449Z" />
    <path d="M75.9828 62.2423L73.2324 62.9724L73.8839 65.5394L76.6342 64.8093L75.9828 62.2423Z" />
    <path d="M58.9789 52.7277L56.2285 53.4578L56.88 56.0247L59.6303 55.2947L58.9789 52.7277Z" />
    <path d="M58.9789 52.7277L56.2285 53.4578L56.88 56.0247L59.6303 55.2947L58.9789 52.7277Z" />
    <path d="M62.3812 54.631L59.6309 55.3611L60.2823 57.9281L63.0327 57.198L62.3812 54.631Z" />
    <path d="M65.7816 56.5342L63.0312 57.2643L63.6827 59.8313L66.4331 59.1012L65.7816 56.5342Z" />
    <path d="M69.1801 58.4359L66.4297 59.166L67.0811 61.733L69.8315 61.0029L69.1801 58.4359Z" />
    <path d="M72.5824 60.3396L69.832 61.0697L70.4835 63.6367L73.2339 62.9066L72.5824 60.3396Z" />
    <path d="M55.5805 50.8261L52.8301 51.5562L53.4815 54.1231L56.2319 53.3931L55.5805 50.8261Z" />
    <path
      d="M73.7378 63.558L73.5588 62.8646L72.8139 63.0599L70.7849 63.592L70.2974 61.7032L70.1185 61.0098L69.3736 61.2051L67.3445 61.7372L66.8574 59.8498L66.6785 59.1564L65.9336 59.3518L63.906 59.8834L63.4186 57.9947L63.2396 57.3013L62.4947 57.4966L60.4657 58.0286L59.9782 56.1399L59.7993 55.4465L59.0544 55.6418L57.0253 56.1739L56.3589 53.5917L55.614 53.7871L53.5865 54.3187L52.9204 51.738L50.1465 52.4653L57.4762 80.8647L60.2501 80.1373L59.5836 77.5552L62.3561 76.8282L61.6896 74.2461L64.4636 73.5187L65.13 76.1008L67.9039 75.3735L69.2364 80.5364L72.0089 79.8094L73.3331 84.9404L78.881 83.4856L77.5567 78.3546L74.7828 79.082L73.4503 73.9191L70.6749 74.6469L70.0084 72.0647L69.3424 69.484L77.6641 67.3019L77.1766 65.4131L76.9977 64.7198L74.2253 65.4467L73.7378 63.558Z"
      fill="#010101" />
  </symbol>

  <symbol id="ill-routes" viewBox="0 0 100 100" fill="black">
    <rect x="7.375" y="7.375" width="85.25" height="85.25" rx="42.625" fill="white" stroke="black"
      stroke-width="2.75" />
    <path fill-rule="evenodd" clip-rule="evenodd"
      d="M52.8732 27.5101L52.2537 28.5812L51.1806 27.9628L50.1076 27.3444L49.4881 28.4155L48.8686 29.4866L47.7956 28.8682L46.7226 28.2498L46.1031 29.3209L45.4836 30.3921L44.4106 29.7737L43.3376 29.1552L42.7181 30.2264L42.0986 31.2975L41.0256 30.6791L39.9526 30.0607L39.3331 31.1318L38.7136 32.2029L37.6406 31.5845L36.5676 30.9661L35.9481 32.0372L35.3286 33.1084L34.2556 32.4899L33.1826 31.8715L32.5631 32.9427L31.9436 34.0138L30.8706 33.3954L29.7976 32.777L29.1781 33.8481L28.5585 34.9192L31.7776 36.7745L34.9966 38.6297L33.7576 40.772L32.5186 42.9143L31.4456 42.2959L30.3726 41.6774L29.1336 43.8197L27.8946 45.962L26.8216 45.3436L25.7486 44.7251L24.5096 46.8674L23.2706 49.0097L25.4166 50.2465L27.5626 51.4834L28.8016 49.3411L30.0406 47.1988L31.1136 47.8172L32.1866 48.4357L33.4256 46.2934L34.6646 44.1511L35.7376 44.7695L36.8106 45.388L37.4301 44.3168L38.0496 43.2457L39.1226 43.8641L40.1956 44.4825L39.5761 45.5537L38.9566 46.6248L40.0296 47.2432L41.1026 47.8616L40.4831 48.9328L39.8636 50.0039L40.9366 50.6223L42.0097 51.2408L48.8242 39.4583L55.6387 27.6758L54.5657 27.0574L53.4927 26.4389L52.8732 27.5101Z" />
    <path fill-rule="evenodd" clip-rule="evenodd"
      d="M47.0038 67.9889L47.6233 66.9178L48.6963 67.5362L49.7693 68.1547L50.3888 67.0835L51.0083 66.0124L52.0813 66.6308L53.1543 67.2492L53.7738 66.1781L54.3933 65.107L55.4663 65.7254L56.5393 66.3438L57.1588 65.2727L57.7783 64.2015L58.8513 64.8199L59.9244 65.4384L60.5439 64.3672L61.1634 63.2961L62.2364 63.9145L63.3094 64.5329L63.9289 63.4618L64.5484 62.3907L65.6214 63.0091L66.6944 63.6275L67.3139 62.5564L67.9334 61.4852L69.0064 62.1037L70.0794 62.7221L70.6989 61.6509L71.3184 60.5798L68.0994 58.7245L64.8804 56.8693L66.1194 54.727L67.3584 52.5847L68.4314 53.2032L69.5044 53.8216L70.7434 51.6793L71.9824 49.537L73.0554 50.1555L74.1284 50.7739L75.3674 48.6316L76.6064 46.4893L74.4604 45.2525L72.3144 44.0157L71.0754 46.1579L69.8364 48.3002L68.7634 47.6818L67.6904 47.0634L66.4514 49.2056L65.2124 51.3479L64.1393 50.7295L63.0663 50.1111L62.4468 51.1822L61.8273 52.2533L60.7543 51.6349L59.6813 51.0165L60.3008 49.9454L60.9203 48.8742L59.8473 48.2558L58.7743 47.6374L59.3938 46.5662L60.0133 45.4951L58.9403 44.8767L57.8673 44.2583L51.0528 56.0408L44.2383 67.8232L45.3113 68.4417L46.3843 69.0601L47.0038 67.9889Z" />

  </symbol>

  <symbol id="icon-twitter" viewBox="0 0 40 40">
    <path
      d="M37.6465 8.46091C36.3356 9.04696 34.9274 9.44295 33.447 9.62193C34.9573 8.70958 36.1159 7.26186 36.6622 5.53854C35.2493 6.38436 33.6841 6.99893 32.0184 7.32839C30.6839 5.89651 28.7843 5 26.6807 5C22.6428 5 19.368 8.3041 19.368 12.3812C19.368 12.9577 19.4339 13.5184 19.5564 14.0601C13.4761 13.7513 8.08971 10.8131 4.48204 6.34952C3.85407 7.44243 3.49299 8.70958 3.49299 10.0591C3.49299 12.6187 4.78503 14.879 6.74586 16.2016C5.54644 16.162 4.41924 15.831 3.43333 15.2782V15.3732C3.43333 18.9482 5.95305 21.9307 9.30011 22.6086C8.6847 22.7765 8.03947 22.8652 7.37382 22.8652C6.90285 22.8652 6.44286 22.8209 5.99701 22.7354C6.92797 25.6656 9.62822 27.8008 12.8293 27.8578C10.3253 29.8377 7.1713 31.0178 3.74575 31.0178C3.15546 31.0178 2.57302 30.9829 2 30.9148C5.23717 33.0104 9.08032 34.23 13.2092 34.23C26.6634 34.23 34.0184 22.9872 34.0184 13.2365C34.0184 12.9197 34.0106 12.5997 33.9965 12.2829C35.4251 11.2407 36.6653 9.94347 37.6434 8.46566L37.6465 8.46091Z" />
  </symbol>

  <symbol id="icon-clock" viewBox="0 0 20 20">
    <path
      d="M4.38 1.88H5.63V3.13H4.38V1.88ZM4.38.63H5.63V1.88H4.38V.63ZM5.63.63H6.88V1.88H5.63V.63ZM5.63 1.88H6.88V3.13H5.63V1.88ZM14.38 1.88H15.63V3.13H14.38V1.88Z" />
    <path
      d="M6.25.63H7.5V1.88H6.25V.63ZM7.5.63H8.75V1.88H7.5V.63ZM8.75.63H10V1.88H8.75V.63ZM10 .63H11.25V1.88H10V.63Z" />
    <path
      d="M10.63.63H11.88V1.88H10.63V.63ZM11.88.63H13.13V1.88H11.88V.63ZM13.13.63H14.38V1.88H13.13V.63ZM14.38.63H15.63V1.88H14.38V.63Z" />
    <path
      d="M15 .63H16.25V1.88H15V.63ZM14.38 5H15.63V6.25H14.38V5ZM14.38 6.25H15.63V7.5H14.38V6.25ZM13.13 6.88H14.38V8.13H13.13V6.88ZM11.88 8.13H13.13V9.38H11.88V8.13ZM10.63 9.38H11.88V10.63H10.63V9.38ZM10.63 10.63H11.88V11.88H10.63V10.63ZM8.75 10.63H10V11.88H8.75V10.63ZM7.5 11.25H8.75V12.5H7.5V11.25ZM5.63 13.75H6.88V15H5.63V13.75ZM11.88 11.25H13.13V12.5H11.88V11.25ZM13.13 12.5H14.38V13.75H13.13V12.5ZM6.25 12.5H7.5V13.75H6.25V12.5ZM14.38 13.75H15.63V15H14.38V13.75Z" />
    <path
      d="M14.38 14.38H15.63V15.63H14.38V14.38ZM5.63 14.38H6.88V15.63H5.63V14.38ZM14.38 15.63H15.63V16.88H14.38V15.63ZM5.63 15.63H6.88V16.88H5.63V15.63ZM7.5 14.38H8.75V15.63H7.5V14.38ZM8.75 15.63H10V16.88H8.75V15.63ZM7.5 15.63H8.75V16.88H7.5V15.63ZM8.75 13.75H10V15H8.75V13.75ZM10.63 15.63H11.88V16.88H10.63V15.63ZM11.88 15.63H13.13V16.88H11.88V15.63ZM11.88 14.38H13.13V15.63H11.88V14.38ZM10 14.38H11.25V15.63H10V14.38Z" />
    <path d="M10.63 13.75H11.88V15H10.63V13.75ZM10 12.5H11.25V13.75H10V12.5ZM10 6.88H11.25V8.13H10V6.88Z" />
    <path d="M10 13.75H11.25V15H10V13.75ZM8.75 14.38H10V15.63H8.75V14.38ZM10 15.63H11.25V16.88H10V15.63Z" />
    <path
      d="M10.63 14.38H11.88V15.63H10.63V14.38ZM10 5H11.25V6.25H10V5ZM14.38 16.88H15.63V18.13H14.38V16.88ZM5.63 16.88H6.88V18.13H5.63V16.88Z" />
    <path
      d="M6.25 16.88H7.5V18.13H6.25V16.88ZM7.5 16.88H8.75V18.13H7.5V16.88ZM8.75 16.88H10V18.13H8.75V16.88ZM10 16.88H11.25V18.13H10V16.88Z" />
    <path
      d="M10.63 16.88H11.88V18.13H10.63V16.88ZM11.88 16.88H13.13V18.13H11.88V16.88ZM13.13 16.88H14.38V18.13H13.13V16.88ZM15 18.13H16.25V19.38H15V18.13Z" />
    <path d="M14.38 18.13H15.63V19.38H14.38V18.13ZM5.63 18.13H6.88V19.38H5.63V18.13Z" />
    <path
      d="M6.25 18.13H7.5V19.38H6.25V18.13ZM7.5 18.13H8.75V19.38H7.5V18.13ZM8.75 18.13H10V19.38H8.75V18.13ZM10 18.13H11.25V19.38H10V18.13Z" />
    <path
      d="M10.63 18.13H11.88V19.38H10.63V18.13ZM11.88 18.13H13.13V19.38H11.88V18.13ZM13.13 18.13H14.38V19.38H13.13V18.13ZM13.13 1.88H14.38V3.13H13.13V1.88ZM11.88 1.88H13.13V3.13H11.88V1.88ZM10.63 1.88H11.88V3.13H10.63V1.88Z" />
    <path
      d="M10 1.88H11.25V3.13H10V1.88ZM8.75 1.88H10V3.13H8.75V1.88ZM7.5 1.88H8.75V3.13H7.5V1.88ZM6.25 1.88H7.5V3.13H6.25V1.88ZM15 18.75H16.25V20H15V18.75Z" />
    <path
      d="M14.38 18.75H15.63V20H14.38V18.75ZM13.13 18.75H14.38V20H13.13V18.75ZM11.88 18.75H13.13V20H11.88V18.75ZM10.63 18.75H11.88V20H10.63V18.75Z" />
    <path
      d="M10 18.75H11.25V20H10V18.75ZM8.75 18.75H10V20H8.75V18.75ZM7.5 18.75H8.75V20H7.5V18.75ZM6.25 18.75H7.5V20H6.25V18.75Z" />
    <path d="M5.63 18.75H6.88V20H5.63V18.75ZM4.38 18.75H5.63V20H4.38V18.75Z" />
    <path
      d="M4.38 18.13H5.63V19.38H4.38V18.13ZM4.38 16.88H5.63V18.13H4.38V16.88ZM15 16.88H16.25V18.13H15V16.88ZM15 1.88H16.25V3.13H15V1.88Z" />
    <path d="M15 2.5H16.25V3.75H15V2.5Z" />
    <path
      d="M14.38 2.5H15.63V3.75H14.38V2.5ZM13.13 2.5H14.38V3.75H13.13V2.5ZM11.88 2.5H13.13V3.75H11.88V2.5ZM10.63 2.5H11.88V3.75H10.63V2.5Z" />
    <path
      d="M10 2.5H11.25V3.75H10V2.5ZM8.75 2.5H10V3.75H8.75V2.5ZM7.5 2.5H8.75V3.75H7.5V2.5ZM6.25 2.5H7.5V3.75H6.25V2.5Z" />
    <path
      d="M5.63 2.5H6.88V3.75H5.63V2.5ZM5.63 3.75H6.88V5H5.63V3.75ZM5.63 5H6.88V6.25H5.63V5ZM14.38 3.75H15.63V5H14.38V3.75ZM5.63 6.25H6.88V7.5H5.63V6.25Z" />
    <path
      d="M6.25 6.88H7.5V8.13H6.25V6.88ZM7.5 8.13H8.75V9.38H7.5V8.13ZM8.75 9.38H10V10.63H8.75V9.38ZM4.38 2.5H5.63V3.75H4.38V2.5Z" />
  </symbol>

  <symbol id="icon-arrow-right" viewBox="0 0 42 42">
    <path
      d="M20.8 4.6V8.2H24.5V4.6H20.8ZM24.5 8.2 24.5 11.9H28.2V8.2L24.5 8.2ZM28.2 11.9 28.2 15.5H31.9V11.9L28.2 11.9ZM31.9 15.5 31.9 19.2H35.6V15.5L31.9 15.5ZM35.6 19.2 35.6 22.8H39.3V19.2L35.6 19.2ZM31.9 19.2V22.8H35.6L35.6 19.2H31.9ZM28.2 19.2V22.8H31.9V19.2L28.2 19.2ZM24.5 19.2V22.8H28.2V19.2H24.5ZM20.8 19.2V22.8H24.5V19.2H20.8ZM17.1 19.2V22.8H20.8V19.2H17.1ZM13.4 19.2V22.8H17.1V19.2H13.4ZM9.7 19.2V22.8H13.4V19.2H9.7ZM6 19.2V22.8H9.7V19.2H6ZM2.3 19.2V22.8H6V19.2H2.3ZM31.9 22.8V26.5H35.6L35.6 22.8H31.9ZM28.2 26.5V30.1H31.9L31.9 26.5 28.2 26.5ZM24.5 30.1V33.8H28.2L28.2 30.1 24.5 30.1ZM20.8 33.8V37.4H24.5L24.5 33.8 20.8 33.8Z" />
  </symbol>

  <symbol id="ill-envelope" viewBox="0 0 80 80">
    <path fill="#252525"
      d="M11.4252 22.8623V34.2898H5.71094V68.5724H11.4252V74.2861H68.5681V68.5724H74.2824V34.2898H68.5681V22.8623L62.8741 17.1363L57.1208 11.4986L51.4441 5.70703L28.6609 5.70738L22.9075 11.4986L17.1395 18.1006L11.4252 22.8623Z" />
    <path fill="#fff" fill-rule="evenodd"
      d="M51.4286 5.71376V0H28.5714V5.71376H22.8571V11.4275H17.1429V17.1413H11.4286V22.8551L5.71429 22.8624V28.5761H0V68.5725H5.71429V74.2862H11.4286V80H68.5714V74.2862H74.2857V68.5725H80V28.5761H74.2857V22.8624L68.5714 22.8551V17.1413H62.8571V11.4275H57.1429V5.71376H51.4286ZM51.4286 5.71376V11.4275H57.1429V17.1413H62.8571V22.8551H68.5714V34.2899H62.8571V40.0037H57.1429V45.7174H51.4286V51.4312H28.5714V45.7174H22.8571V40.0037H17.1429V34.2899H11.4286V22.8551H17.1429V17.1413H22.8571V11.4275H28.5714V5.71376H51.4286ZM11.4286 34.2899H5.71429V68.5725H11.4286V74.2862H68.5714V68.5725H74.2857V34.2899H68.5714V40.0037H62.8571V45.7174H57.1429V51.4312H51.4286V57.145H28.5714V51.4312H22.8571V45.7174H17.1429V40.0037H11.4286V34.2899Z"
      clip-rule="evenodd" />
  </symbol>
</svg>