<svg width="67" height="60" viewBox="0 0 67 60" fill="none" xmlns="http://www.w3.org/2000/svg">
<path d="M65.9016 25.8649L52.8632 3.31603C52.2798 2.30591 51.4401 1.46746 50.4289 0.885258C49.4177 0.303061 48.2708 -0.00228891 47.1038 1.29182e-05H21.0536C19.6092 0.00388224 18.1911 0.386212 16.9407 1.10886C15.6903 1.83152 14.6513 2.86923 13.9273 4.1185L0.888961 26.6674C0.306592 27.6756 0 28.8193 0 29.9834C0 31.1476 0.306592 32.2912 0.888961 33.2994L13.9273 55.8815C14.6518 57.1318 15.6919 58.1701 16.9436 58.8928C18.1952 59.6155 19.6147 59.9973 21.0603 60H47.1038C48.2663 59.9976 49.4077 59.6901 50.4138 59.1081C51.42 58.5262 52.2555 57.6902 52.8367 56.684L65.8751 34.1351C66.6073 32.8809 66.9953 31.4557 67 30.0036C67.0046 28.5515 66.6257 27.1238 65.9016 25.8649ZM4.59146 30.0763L6.06449 27.5495L17.7094 7.35494L25.0083 20.0089C25.3488 20.5411 25.8816 20.9215 26.4958 21.0709C27.1099 21.2204 27.758 21.1273 28.3053 20.8111C28.8525 20.4949 29.2566 19.9799 29.4335 19.3734C29.6103 18.7669 29.5464 18.1156 29.2549 17.555L23.376 7.35494C22.8886 6.6329 22.2384 6.03531 21.4778 5.61026C20.7172 5.18521 19.8673 4.94458 18.9967 4.90772H45.2857L32.9242 26.3093C32.7058 26.686 32.3923 26.9988 32.015 27.2165C31.6378 27.4341 31.2099 27.5489 30.7743 27.5495H9.03047C8.13366 27.5436 7.25113 27.7741 6.47182 28.2177C5.69251 28.6613 5.04394 29.3023 4.59146 30.0763ZM45.2857 55.0989H21.9627L29.2615 42.4317C29.4402 42.1525 29.5604 41.8399 29.6149 41.5129C29.6695 41.1859 29.6571 40.8513 29.5787 40.5292C29.5002 40.2071 29.3573 39.9042 29.1585 39.6389C28.9597 39.3735 28.7092 39.1511 28.422 38.9852C28.1349 38.8193 27.8171 38.7133 27.4878 38.6735C27.1586 38.6337 26.8246 38.661 26.5062 38.7538C26.1878 38.8466 25.8915 39.0029 25.6352 39.2133C25.3789 39.4236 25.1679 39.6838 25.0149 39.9779L17.7161 52.6451L16.2629 55.1785C16.6643 54.4772 16.8934 53.6907 16.9314 52.8836C16.9695 52.0766 16.8154 51.272 16.4819 50.5361L6.05122 32.4505H30.7743C31.2098 32.4518 31.6374 32.5669 32.0145 32.7844C32.3917 33.002 32.7053 33.3145 32.9242 33.6907L43.9056 52.6981C44.3903 53.41 45.0355 53.9981 45.7892 54.4151C46.543 54.8321 47.3842 55.0664 48.2451 55.0989H45.2857ZM61.1972 32.4572L49.539 52.6451L37.1509 31.2435C36.9343 30.866 36.8204 30.4385 36.8204 30.0033C36.8204 29.5682 36.9343 29.1406 37.1509 28.7631L49.539 7.35494L50.9921 4.82813C50.506 5.67946 50.2739 6.65211 50.3232 7.6311C50.3726 8.61009 50.7014 9.55447 51.2708 10.3526C51.6888 10.9362 61.2237 27.5428 61.2237 27.5428H46.5531C45.902 27.5428 45.2775 27.8014 44.8171 28.2616C44.3567 28.7217 44.098 29.3459 44.098 29.9967C44.098 30.6475 44.3567 31.2716 44.8171 31.7318C45.2775 32.192 45.902 32.4505 46.5531 32.4505H58.2976H58.2312C59.128 32.4564 60.0105 32.226 60.7898 31.7824C61.5692 31.3387 62.2177 30.6977 62.6702 29.9237L61.1905 32.4638L61.1972 32.4572Z" fill="white"/>
</svg>
